<svg width="600" height="320" viewBox="0 0 600 320" fill="none" xmlns="http://www.w3.org/2000/svg">
<path d="M24.3818 260.983V259.617H26.9347V267.339H25.4093V260.983H24.3818ZM28.3998 263.377C28.3998 262.155 28.6187 261.199 29.0565 260.506C29.5014 259.814 30.2359 259.468 31.2599 259.468C32.2839 259.468 33.0148 259.814 33.4526 260.506C33.8975 261.199 34.12 262.155 34.12 263.377C34.12 264.606 33.8975 265.57 33.4526 266.269C33.0148 266.968 32.2839 267.318 31.2599 267.318C30.2359 267.318 29.5014 266.968 29.0565 266.269C28.6187 265.57 28.3998 264.606 28.3998 263.377ZM32.6581 263.377C32.6581 262.855 32.6228 262.417 32.5522 262.064C32.4886 261.703 32.3545 261.41 32.1497 261.184C31.9519 260.958 31.6553 260.845 31.2599 260.845C30.8644 260.845 30.5643 260.958 30.3595 261.184C30.1617 261.41 30.0276 261.703 29.9569 262.064C29.8934 262.417 29.8616 262.855 29.8616 263.377C29.8616 263.914 29.8934 264.366 29.9569 264.733C30.0205 265.093 30.1547 265.386 30.3595 265.612C30.5643 265.831 30.8644 265.941 31.2599 265.941C31.6553 265.941 31.9555 265.831 32.1603 265.612C32.3651 265.386 32.4992 265.093 32.5628 264.733C32.6264 264.366 32.6581 263.914 32.6581 263.377ZM37.6025 261.513C37.6025 260.976 37.7579 260.556 38.0686 260.252C38.3864 259.949 38.7925 259.797 39.2868 259.797C39.7812 259.797 40.1837 259.949 40.4944 260.252C40.8122 260.556 40.9711 260.976 40.9711 261.513C40.9711 262.057 40.8122 262.48 40.4944 262.784C40.1837 263.088 39.7812 263.239 39.2868 263.239C38.7925 263.239 38.3864 263.088 38.0686 262.784C37.7579 262.48 37.6025 262.057 37.6025 261.513ZM44.4032 259.924L40.2402 267.339H38.7995L42.952 259.924H44.4032ZM39.2762 260.687C38.8878 260.687 38.6936 260.962 38.6936 261.513C38.6936 262.071 38.8878 262.35 39.2762 262.35C39.4669 262.35 39.6152 262.283 39.7211 262.148C39.8271 262.007 39.88 261.795 39.88 261.513C39.88 260.962 39.6788 260.687 39.2762 260.687ZM42.2528 265.739C42.2528 265.196 42.4082 264.775 42.7189 264.479C43.0367 264.175 43.4428 264.023 43.9371 264.023C44.4314 264.023 44.8304 264.175 45.1341 264.479C45.4448 264.775 45.6002 265.196 45.6002 265.739C45.6002 266.283 45.4448 266.707 45.1341 267.01C44.8304 267.314 44.4314 267.466 43.9371 267.466C43.4357 267.466 43.0297 267.314 42.7189 267.01C42.4082 266.707 42.2528 266.283 42.2528 265.739ZM43.9265 264.913C43.524 264.913 43.3227 265.189 43.3227 265.739C43.3227 266.297 43.524 266.576 43.9265 266.576C44.322 266.576 44.5197 266.297 44.5197 265.739C44.5197 265.189 44.322 264.913 43.9265 264.913Z" fill="#727680"/>
<path d="M64 65.3V285.3" stroke="#B2B2B2" stroke-width="2" stroke-miterlimit="10"/>
<path d="M64 285.3H564" stroke="#B2B2B2" stroke-width="2" stroke-miterlimit="10"/>
<path d="M554 265.3H74" stroke="#CECECE" stroke-miterlimit="10"/>
<path d="M74 245.3H554" stroke="#CECECE" stroke-miterlimit="10"/>
<path d="M74 225.3H554" stroke="#CECECE" stroke-miterlimit="10"/>
<path d="M74 205.3H554" stroke="#CECECE" stroke-miterlimit="10"/>
<path d="M74 185.3H554" stroke="#CECECE" stroke-miterlimit="10"/>
<path d="M74 165.3H554" stroke="#CECECE" stroke-miterlimit="10"/>
<path d="M74 144.8H554" stroke="#CECECE" stroke-miterlimit="10"/>
<path d="M74 124.8H554" stroke="#CECECE" stroke-miterlimit="10"/>
<path d="M74 104.8H554" stroke="#CECECE" stroke-miterlimit="10"/>
<path d="M74 84.8H554" stroke="#CECECE" stroke-miterlimit="10"/>
<path d="M25.028 245.665C25.7059 245.1 26.2462 244.631 26.6487 244.256C27.0512 243.875 27.3867 243.48 27.655 243.07C27.9234 242.66 28.0576 242.258 28.0576 241.862C28.0576 241.502 27.9728 241.22 27.8033 241.015C27.6339 240.81 27.3726 240.708 27.0195 240.708C26.6664 240.708 26.3945 240.828 26.2038 241.068C26.0131 241.301 25.9143 241.622 25.9072 242.032H24.4666C24.4948 241.184 24.7455 240.542 25.2187 240.104C25.6989 239.666 26.3062 239.447 27.0407 239.447C27.8457 239.447 28.4636 239.663 28.8944 240.093C29.3252 240.517 29.5406 241.078 29.5406 241.778C29.5406 242.328 29.3923 242.855 29.0957 243.356C28.7991 243.857 28.4601 244.295 28.0788 244.669C27.6974 245.037 27.1996 245.482 26.5852 246.004H29.7101V247.233H24.4772V246.131L25.028 245.665ZM30.6446 243.377C30.6446 242.155 30.8635 241.199 31.3013 240.506C31.7462 239.814 32.4807 239.468 33.5047 239.468C34.5286 239.468 35.2596 239.814 35.6974 240.506C36.1423 241.199 36.3647 242.155 36.3647 243.377C36.3647 244.606 36.1423 245.57 35.6974 246.269C35.2596 246.968 34.5286 247.318 33.5047 247.318C32.4807 247.318 31.7462 246.968 31.3013 246.269C30.8635 245.57 30.6446 244.606 30.6446 243.377ZM34.9029 243.377C34.9029 242.855 34.8676 242.417 34.797 242.064C34.7334 241.703 34.5993 241.41 34.3945 241.184C34.1967 240.958 33.9001 240.845 33.5047 240.845C33.1092 240.845 32.8091 240.958 32.6043 241.184C32.4065 241.41 32.2723 241.703 32.2017 242.064C32.1382 242.417 32.1064 242.855 32.1064 243.377C32.1064 243.914 32.1382 244.366 32.2017 244.733C32.2653 245.093 32.3995 245.386 32.6043 245.612C32.8091 245.831 33.1092 245.941 33.5047 245.941C33.9001 245.941 34.2003 245.831 34.4051 245.612C34.6099 245.386 34.744 245.093 34.8076 244.733C34.8711 244.366 34.9029 243.914 34.9029 243.377ZM39.8473 241.513C39.8473 240.976 40.0027 240.556 40.3134 240.252C40.6312 239.949 41.0373 239.797 41.5316 239.797C42.0259 239.797 42.4285 239.949 42.7392 240.252C43.057 240.556 43.2159 240.976 43.2159 241.513C43.2159 242.057 43.057 242.48 42.7392 242.784C42.4285 243.088 42.0259 243.239 41.5316 243.239C41.0373 243.239 40.6312 243.088 40.3134 242.784C40.0027 242.48 39.8473 242.057 39.8473 241.513ZM46.648 239.924L42.485 247.339H41.0443L45.1968 239.924H46.648ZM41.521 240.687C41.1326 240.687 40.9384 240.962 40.9384 241.513C40.9384 242.071 41.1326 242.35 41.521 242.35C41.7117 242.35 41.86 242.283 41.9659 242.148C42.0718 242.007 42.1248 241.795 42.1248 241.513C42.1248 240.962 41.9235 240.687 41.521 240.687ZM44.4976 245.739C44.4976 245.196 44.653 244.775 44.9637 244.479C45.2815 244.175 45.6876 244.023 46.1819 244.023C46.6762 244.023 47.0752 244.175 47.3789 244.479C47.6896 244.775 47.845 245.196 47.845 245.739C47.845 246.283 47.6896 246.707 47.3789 247.01C47.0752 247.314 46.6762 247.466 46.1819 247.466C45.6805 247.466 45.2744 247.314 44.9637 247.01C44.653 246.707 44.4976 246.283 44.4976 245.739ZM46.1713 244.913C45.7688 244.913 45.5675 245.189 45.5675 245.739C45.5675 246.297 45.7688 246.576 46.1713 246.576C46.5668 246.576 46.7645 246.297 46.7645 245.739C46.7645 245.189 46.5668 244.913 46.1713 244.913Z" fill="#727680"/>
<path d="M24.5831 221.65C24.6184 220.944 24.8656 220.401 25.3246 220.019C25.7907 219.631 26.4016 219.437 27.1572 219.437C27.6727 219.437 28.1141 219.528 28.4813 219.712C28.8485 219.889 29.1239 220.132 29.3075 220.443C29.4982 220.747 29.5936 221.093 29.5936 221.481C29.5936 221.926 29.477 222.304 29.244 222.614C29.018 222.918 28.7461 223.123 28.4283 223.229V223.271C28.8379 223.398 29.1557 223.624 29.3817 223.949C29.6147 224.274 29.7313 224.691 29.7313 225.199C29.7313 225.623 29.6324 226.001 29.4347 226.333C29.244 226.664 28.958 226.926 28.5766 227.116C28.2023 227.3 27.7504 227.392 27.2207 227.392C26.4227 227.392 25.773 227.191 25.2716 226.788C24.7702 226.386 24.5054 225.792 24.4772 225.008H25.9178C25.9319 225.354 26.0485 225.633 26.2674 225.845C26.4934 226.05 26.8006 226.152 27.189 226.152C27.5491 226.152 27.8245 226.054 28.0152 225.856C28.2129 225.651 28.3118 225.39 28.3118 225.072C28.3118 224.648 28.1776 224.345 27.9093 224.161C27.6409 223.977 27.2243 223.886 26.6593 223.886H26.3521V222.667H26.6593C27.6621 222.667 28.1635 222.332 28.1635 221.661C28.1635 221.357 28.0717 221.121 27.8881 220.951C27.7115 220.782 27.4538 220.697 27.1148 220.697C26.7829 220.697 26.5251 220.789 26.3415 220.973C26.165 221.149 26.0626 221.375 26.0343 221.65H24.5831ZM30.9032 223.377C30.9032 222.155 31.1221 221.199 31.5599 220.506C32.0048 219.814 32.7393 219.468 33.7633 219.468C34.7873 219.468 35.5182 219.814 35.956 220.506C36.4009 221.199 36.6234 222.155 36.6234 223.377C36.6234 224.606 36.4009 225.57 35.956 226.269C35.5182 226.968 34.7873 227.318 33.7633 227.318C32.7393 227.318 32.0048 226.968 31.5599 226.269C31.1221 225.57 30.9032 224.606 30.9032 223.377ZM35.1615 223.377C35.1615 222.855 35.1262 222.417 35.0556 222.064C34.9921 221.703 34.8579 221.41 34.6531 221.184C34.4553 220.958 34.1587 220.845 33.7633 220.845C33.3678 220.845 33.0677 220.958 32.8629 221.184C32.6651 221.41 32.531 221.703 32.4603 222.064C32.3968 222.417 32.365 222.855 32.365 223.377C32.365 223.914 32.3968 224.366 32.4603 224.733C32.5239 225.093 32.6581 225.386 32.8629 225.612C33.0677 225.831 33.3678 225.941 33.7633 225.941C34.1587 225.941 34.4589 225.831 34.6637 225.612C34.8685 225.386 35.0026 225.093 35.0662 224.733C35.1298 224.366 35.1615 223.914 35.1615 223.377ZM40.106 221.513C40.106 220.976 40.2613 220.556 40.572 220.252C40.8898 219.949 41.2959 219.797 41.7902 219.797C42.2846 219.797 42.6871 219.949 42.9978 220.252C43.3156 220.556 43.4745 220.976 43.4745 221.513C43.4745 222.057 43.3156 222.48 42.9978 222.784C42.6871 223.088 42.2846 223.239 41.7902 223.239C41.2959 223.239 40.8898 223.088 40.572 222.784C40.2613 222.48 40.106 222.057 40.106 221.513ZM46.9066 219.924L42.7436 227.339H41.303L45.4554 219.924H46.9066ZM41.7796 220.687C41.3912 220.687 41.197 220.962 41.197 221.513C41.197 222.071 41.3912 222.35 41.7796 222.35C41.9703 222.35 42.1186 222.283 42.2245 222.148C42.3305 222.007 42.3834 221.795 42.3834 221.513C42.3834 220.962 42.1822 220.687 41.7796 220.687ZM44.7562 225.739C44.7562 225.196 44.9116 224.775 45.2223 224.479C45.5401 224.175 45.9462 224.023 46.4405 224.023C46.9349 224.023 47.3339 224.175 47.6375 224.479C47.9482 224.775 48.1036 225.196 48.1036 225.739C48.1036 226.283 47.9482 226.707 47.6375 227.01C47.3339 227.314 46.9349 227.466 46.4405 227.466C45.9391 227.466 45.5331 227.314 45.2223 227.01C44.9116 226.707 44.7562 226.283 44.7562 225.739ZM46.4299 224.913C46.0274 224.913 45.8261 225.189 45.8261 225.739C45.8261 226.297 46.0274 226.576 46.4299 226.576C46.8254 226.576 47.0231 226.297 47.0231 225.739C47.0231 225.189 46.8254 224.913 46.4299 224.913Z" fill="#727680"/>
<path d="M24.4984 205.835V204.669L27.9622 199.712H29.6889V204.542H30.6211V205.835H29.6889V207.339H28.2059V205.835H24.4984ZM28.3012 201.301L26.1297 204.542H28.3012V201.301ZM31.5652 203.377C31.5652 202.155 31.7842 201.199 32.222 200.506C32.6669 199.814 33.4013 199.468 34.4253 199.468C35.4493 199.468 36.1802 199.814 36.6181 200.506C37.063 201.199 37.2854 202.155 37.2854 203.377C37.2854 204.606 37.063 205.57 36.6181 206.269C36.1802 206.968 35.4493 207.318 34.4253 207.318C33.4013 207.318 32.6669 206.968 32.222 206.269C31.7842 205.57 31.5652 204.606 31.5652 203.377ZM35.8236 203.377C35.8236 202.855 35.7883 202.417 35.7177 202.064C35.6541 201.703 35.5199 201.41 35.3151 201.184C35.1174 200.958 34.8208 200.845 34.4253 200.845C34.0299 200.845 33.7297 200.958 33.5249 201.184C33.3272 201.41 33.193 201.703 33.1224 202.064C33.0588 202.417 33.0271 202.855 33.0271 203.377C33.0271 203.914 33.0588 204.366 33.1224 204.733C33.186 205.093 33.3201 205.386 33.5249 205.612C33.7297 205.831 34.0299 205.941 34.4253 205.941C34.8208 205.941 35.1209 205.831 35.3257 205.612C35.5305 205.386 35.6647 205.093 35.7283 204.733C35.7918 204.366 35.8236 203.914 35.8236 203.377ZM40.768 201.513C40.768 200.976 40.9234 200.556 41.2341 200.252C41.5519 199.949 41.9579 199.797 42.4523 199.797C42.9466 199.797 43.3492 199.949 43.6599 200.252C43.9777 200.556 44.1366 200.976 44.1366 201.513C44.1366 202.057 43.9777 202.48 43.6599 202.784C43.3492 203.088 42.9466 203.239 42.4523 203.239C41.9579 203.239 41.5519 203.088 41.2341 202.784C40.9234 202.48 40.768 202.057 40.768 201.513ZM47.5687 199.924L43.4056 207.339H41.965L46.1174 199.924H47.5687ZM42.4417 200.687C42.0533 200.687 41.8591 200.962 41.8591 201.513C41.8591 202.071 42.0533 202.35 42.4417 202.35C42.6324 202.35 42.7807 202.283 42.8866 202.148C42.9925 202.007 43.0455 201.795 43.0455 201.513C43.0455 200.962 42.8442 200.687 42.4417 200.687ZM45.4183 205.739C45.4183 205.196 45.5737 204.775 45.8844 204.479C46.2022 204.175 46.6082 204.023 47.1026 204.023C47.5969 204.023 47.9959 204.175 48.2996 204.479C48.6103 204.775 48.7657 205.196 48.7657 205.739C48.7657 206.283 48.6103 206.707 48.2996 207.01C47.9959 207.314 47.5969 207.466 47.1026 207.466C46.6012 207.466 46.1951 207.314 45.8844 207.01C45.5737 206.707 45.4183 206.283 45.4183 205.739ZM47.092 204.913C46.6895 204.913 46.4882 205.189 46.4882 205.739C46.4882 206.297 46.6895 206.576 47.092 206.576C47.4875 206.576 47.6852 206.297 47.6852 205.739C47.6852 205.189 47.4875 204.913 47.092 204.913Z" fill="#727680"/>
<path d="M29.7524 180.898H26.3203V182.71C26.4686 182.526 26.6805 182.378 26.9559 182.265C27.2313 182.145 27.5244 182.085 27.8351 182.085C28.4001 182.085 28.8626 182.208 29.2228 182.456C29.583 182.703 29.8443 183.02 30.0067 183.409C30.1691 183.79 30.2503 184.2 30.2503 184.638C30.2503 185.45 30.0173 186.103 29.5512 186.597C29.0922 187.092 28.4354 187.339 27.5809 187.339C26.7758 187.339 26.1332 187.138 25.653 186.735C25.1728 186.333 24.9009 185.806 24.8373 185.157H26.278C26.3415 185.439 26.4828 185.665 26.7017 185.835C26.9277 186.004 27.2137 186.089 27.5597 186.089C27.9764 186.089 28.2906 185.958 28.5025 185.697C28.7143 185.436 28.8203 185.09 28.8203 184.659C28.8203 184.221 28.7108 183.889 28.4919 183.663C28.28 183.43 27.9658 183.314 27.5491 183.314C27.2525 183.314 27.0053 183.388 26.8076 183.536C26.6099 183.684 26.4686 183.882 26.3839 184.129H24.9644V179.595H29.7524V180.898ZM31.379 183.377C31.379 182.155 31.598 181.199 32.0358 180.506C32.4807 179.814 33.2151 179.468 34.2391 179.468C35.2631 179.468 35.994 179.814 36.4319 180.506C36.8768 181.199 37.0992 182.155 37.0992 183.377C37.0992 184.606 36.8768 185.57 36.4319 186.269C35.994 186.968 35.2631 187.318 34.2391 187.318C33.2151 187.318 32.4807 186.968 32.0358 186.269C31.598 185.57 31.379 184.606 31.379 183.377ZM35.6374 183.377C35.6374 182.855 35.6021 182.417 35.5315 182.064C35.4679 181.703 35.3337 181.41 35.1289 181.184C34.9312 180.958 34.6346 180.845 34.2391 180.845C33.8437 180.845 33.5435 180.958 33.3387 181.184C33.141 181.41 33.0068 181.703 32.9362 182.064C32.8726 182.417 32.8409 182.855 32.8409 183.377C32.8409 183.914 32.8726 184.366 32.9362 184.733C32.9998 185.093 33.1339 185.386 33.3387 185.612C33.5435 185.831 33.8437 185.941 34.2391 185.941C34.6346 185.941 34.9347 185.831 35.1395 185.612C35.3443 185.386 35.4785 185.093 35.5421 184.733C35.6056 184.366 35.6374 183.914 35.6374 183.377ZM40.5818 181.513C40.5818 180.976 40.7372 180.556 41.0479 180.252C41.3657 179.949 41.7717 179.797 42.2661 179.797C42.7604 179.797 43.1629 179.949 43.4737 180.252C43.7915 180.556 43.9504 180.976 43.9504 181.513C43.9504 182.057 43.7915 182.48 43.4737 182.784C43.1629 183.088 42.7604 183.239 42.2661 183.239C41.7717 183.239 41.3657 183.088 41.0479 182.784C40.7372 182.48 40.5818 182.057 40.5818 181.513ZM47.3825 179.924L43.2194 187.339H41.7788L45.9312 179.924H47.3825ZM42.2555 180.687C41.8671 180.687 41.6729 180.962 41.6729 181.513C41.6729 182.071 41.8671 182.35 42.2555 182.35C42.4462 182.35 42.5945 182.283 42.7004 182.148C42.8063 182.007 42.8593 181.795 42.8593 181.513C42.8593 180.962 42.658 180.687 42.2555 180.687ZM45.2321 185.739C45.2321 185.196 45.3875 184.775 45.6982 184.479C46.016 184.175 46.422 184.023 46.9164 184.023C47.4107 184.023 47.8097 184.175 48.1134 184.479C48.4241 184.775 48.5795 185.196 48.5795 185.739C48.5795 186.283 48.4241 186.707 48.1134 187.01C47.8097 187.314 47.4107 187.466 46.9164 187.466C46.415 187.466 46.0089 187.314 45.6982 187.01C45.3875 186.707 45.2321 186.283 45.2321 185.739ZM46.9058 184.913C46.5032 184.913 46.302 185.189 46.302 185.739C46.302 186.297 46.5032 186.576 46.9058 186.576C47.3012 186.576 47.499 186.297 47.499 185.739C47.499 185.189 47.3012 184.913 46.9058 184.913Z" fill="#727680"/>
<path d="M28.566 161.545C28.4954 161.248 28.3718 161.025 28.1953 160.877C28.0258 160.729 27.7786 160.655 27.4538 160.655C26.9665 160.655 26.6063 160.852 26.3733 161.248C26.1473 161.636 26.0308 162.272 26.0237 163.155C26.1932 162.872 26.4404 162.653 26.7652 162.498C27.0901 162.335 27.4432 162.254 27.8245 162.254C28.2836 162.254 28.6896 162.353 29.0427 162.551C29.3958 162.749 29.6712 163.038 29.869 163.419C30.0667 163.794 30.1656 164.246 30.1656 164.775C30.1656 165.277 30.0632 165.725 29.8584 166.121C29.6606 166.509 29.3676 166.813 28.9792 167.032C28.5908 167.251 28.1282 167.36 27.5915 167.36C26.857 167.36 26.278 167.198 25.8542 166.873C25.4376 166.548 25.1445 166.096 24.975 165.517C24.8126 164.931 24.7314 164.21 24.7314 163.356C24.7314 162.064 24.9539 161.089 25.3988 160.432C25.8437 159.768 26.5463 159.437 27.5067 159.437C28.2483 159.437 28.8238 159.638 29.2334 160.04C29.643 160.443 29.8796 160.944 29.9431 161.545H28.566ZM27.4856 163.472C27.1113 163.472 26.797 163.582 26.5428 163.801C26.2886 164.02 26.1614 164.338 26.1614 164.754C26.1614 165.171 26.278 165.499 26.511 165.739C26.7511 165.979 27.0866 166.099 27.5173 166.099C27.8987 166.099 28.1988 165.983 28.4177 165.75C28.6437 165.517 28.7567 165.203 28.7567 164.807C28.7567 164.398 28.6473 164.073 28.4283 163.833C28.2165 163.593 27.9022 163.472 27.4856 163.472ZM31.3377 163.377C31.3377 162.155 31.5566 161.199 31.9944 160.506C32.4393 159.814 33.1738 159.468 34.1977 159.468C35.2217 159.468 35.9526 159.814 36.3905 160.506C36.8354 161.199 37.0578 162.155 37.0578 163.377C37.0578 164.606 36.8354 165.57 36.3905 166.269C35.9526 166.968 35.2217 167.318 34.1977 167.318C33.1738 167.318 32.4393 166.968 31.9944 166.269C31.5566 165.57 31.3377 164.606 31.3377 163.377ZM35.596 163.377C35.596 162.855 35.5607 162.417 35.4901 162.064C35.4265 161.703 35.2924 161.41 35.0876 161.184C34.8898 160.958 34.5932 160.845 34.1977 160.845C33.8023 160.845 33.5021 160.958 33.2974 161.184C33.0996 161.41 32.9654 161.703 32.8948 162.064C32.8313 162.417 32.7995 162.855 32.7995 163.377C32.7995 163.914 32.8313 164.366 32.8948 164.733C32.9584 165.093 33.0926 165.386 33.2974 165.612C33.5021 165.831 33.8023 165.941 34.1977 165.941C34.5932 165.941 34.8934 165.831 35.0981 165.612C35.3029 165.386 35.4371 165.093 35.5007 164.733C35.5642 164.366 35.596 163.914 35.596 163.377ZM40.5404 161.513C40.5404 160.976 40.6958 160.556 41.0065 160.252C41.3243 159.949 41.7304 159.797 42.2247 159.797C42.719 159.797 43.1216 159.949 43.4323 160.252C43.7501 160.556 43.909 160.976 43.909 161.513C43.909 162.057 43.7501 162.48 43.4323 162.784C43.1216 163.088 42.719 163.239 42.2247 163.239C41.7304 163.239 41.3243 163.088 41.0065 162.784C40.6958 162.48 40.5404 162.057 40.5404 161.513ZM47.3411 159.924L43.1781 167.339H41.7374L45.8899 159.924H47.3411ZM42.2141 160.687C41.8257 160.687 41.6315 160.962 41.6315 161.513C41.6315 162.071 41.8257 162.35 42.2141 162.35C42.4048 162.35 42.5531 162.283 42.659 162.148C42.7649 162.007 42.8179 161.795 42.8179 161.513C42.8179 160.962 42.6166 160.687 42.2141 160.687ZM45.1907 165.739C45.1907 165.196 45.3461 164.775 45.6568 164.479C45.9746 164.175 46.3807 164.023 46.875 164.023C47.3693 164.023 47.7683 164.175 48.072 164.479C48.3827 164.775 48.5381 165.196 48.5381 165.739C48.5381 166.283 48.3827 166.707 48.072 167.01C47.7683 167.314 47.3693 167.466 46.875 167.466C46.3736 167.466 45.9675 167.314 45.6568 167.01C45.3461 166.707 45.1907 166.283 45.1907 165.739ZM46.8644 164.913C46.4619 164.913 46.2606 165.189 46.2606 165.739C46.2606 166.297 46.4619 166.576 46.8644 166.576C47.2599 166.576 47.4576 166.297 47.4576 165.739C47.4576 165.189 47.2599 164.913 46.8644 164.913Z" fill="#727680"/>
<path d="M29.477 140.239L26.6593 146.839H25.1551L27.994 140.409H24.3712V139.138H29.477V140.239ZM30.3653 142.877C30.3653 141.655 30.5842 140.699 31.022 140.006C31.4669 139.314 32.2014 138.968 33.2254 138.968C34.2493 138.968 34.9802 139.314 35.4181 140.006C35.863 140.699 36.0854 141.655 36.0854 142.877C36.0854 144.106 35.863 145.07 35.4181 145.769C34.9802 146.468 34.2493 146.818 33.2254 146.818C32.2014 146.818 31.4669 146.468 31.022 145.769C30.5842 145.07 30.3653 144.106 30.3653 142.877ZM34.6236 142.877C34.6236 142.355 34.5883 141.917 34.5177 141.564C34.4541 141.203 34.32 140.91 34.1152 140.684C33.9174 140.458 33.6208 140.345 33.2254 140.345C32.8299 140.345 32.5297 140.458 32.325 140.684C32.1272 140.91 31.993 141.203 31.9224 141.564C31.8589 141.917 31.8271 142.355 31.8271 142.877C31.8271 143.414 31.8589 143.866 31.9224 144.233C31.986 144.593 32.1202 144.886 32.325 145.112C32.5297 145.331 32.8299 145.441 33.2254 145.441C33.6208 145.441 33.921 145.331 34.1257 145.112C34.3305 144.886 34.4647 144.593 34.5283 144.233C34.5918 143.866 34.6236 143.414 34.6236 142.877ZM39.568 141.013C39.568 140.476 39.7234 140.056 40.0341 139.752C40.3519 139.449 40.758 139.297 41.2523 139.297C41.7466 139.297 42.1492 139.449 42.4599 139.752C42.7777 140.056 42.9366 140.476 42.9366 141.013C42.9366 141.557 42.7777 141.98 42.4599 142.284C42.1492 142.588 41.7466 142.739 41.2523 142.739C40.758 142.739 40.3519 142.588 40.0341 142.284C39.7234 141.98 39.568 141.557 39.568 141.013ZM46.3687 139.424L42.2057 146.839H40.765L44.9175 139.424H46.3687ZM41.2417 140.187C40.8533 140.187 40.6591 140.462 40.6591 141.013C40.6591 141.571 40.8533 141.85 41.2417 141.85C41.4324 141.85 41.5807 141.783 41.6866 141.648C41.7925 141.507 41.8455 141.295 41.8455 141.013C41.8455 140.462 41.6442 140.187 41.2417 140.187ZM44.2183 145.239C44.2183 144.696 44.3737 144.275 44.6844 143.979C45.0022 143.675 45.4083 143.523 45.9026 143.523C46.3969 143.523 46.7959 143.675 47.0996 143.979C47.4103 144.275 47.5657 144.696 47.5657 145.239C47.5657 145.783 47.4103 146.207 47.0996 146.51C46.7959 146.814 46.3969 146.966 45.9026 146.966C45.4012 146.966 44.9951 146.814 44.6844 146.51C44.3737 146.207 44.2183 145.783 44.2183 145.239ZM45.892 144.413C45.4895 144.413 45.2882 144.689 45.2882 145.239C45.2882 145.797 45.4895 146.076 45.892 146.076C46.2875 146.076 46.4852 145.797 46.4852 145.239C46.4852 144.689 46.2875 144.413 45.892 144.413Z" fill="#727680"/>
<path d="M25.8542 122.75C25.1481 122.383 24.795 121.814 24.795 121.045C24.795 120.663 24.8903 120.317 25.081 120.006C25.2787 119.689 25.5718 119.438 25.9602 119.254C26.3556 119.064 26.8359 118.968 27.4008 118.968C27.9658 118.968 28.4425 119.064 28.8309 119.254C29.2263 119.438 29.5194 119.689 29.7101 120.006C29.9078 120.317 30.0067 120.663 30.0067 121.045C30.0067 121.433 29.9113 121.775 29.7207 122.072C29.53 122.362 29.2758 122.588 28.958 122.75C29.3464 122.919 29.65 123.167 29.869 123.492C30.0879 123.816 30.1973 124.201 30.1973 124.646C30.1973 125.126 30.0738 125.547 29.8266 125.907C29.5865 126.26 29.2546 126.532 28.8309 126.722C28.4071 126.913 27.9305 127.008 27.4008 127.008C26.8712 127.008 26.3945 126.913 25.9708 126.722C25.5541 126.532 25.2222 126.26 24.975 125.907C24.7349 125.547 24.6149 125.126 24.6149 124.646C24.6149 124.201 24.7243 123.816 24.9433 123.492C25.1622 123.16 25.4658 122.912 25.8542 122.75ZM28.566 121.256C28.566 120.91 28.4601 120.642 28.2483 120.451C28.0435 120.261 27.761 120.165 27.4008 120.165C27.0477 120.165 26.7652 120.261 26.5534 120.451C26.3486 120.642 26.2462 120.914 26.2462 121.267C26.2462 121.585 26.3521 121.839 26.564 122.03C26.7829 122.22 27.0618 122.316 27.4008 122.316C27.7398 122.316 28.0187 122.22 28.2377 122.03C28.4566 121.832 28.566 121.574 28.566 121.256ZM27.4008 123.396C26.9983 123.396 26.6699 123.499 26.4157 123.703C26.1685 123.908 26.0449 124.201 26.0449 124.583C26.0449 124.936 26.165 125.225 26.4051 125.451C26.6523 125.67 26.9842 125.78 27.4008 125.78C27.8175 125.78 28.1459 125.667 28.386 125.441C28.6261 125.215 28.7461 124.929 28.7461 124.583C28.7461 124.208 28.6225 123.919 28.3754 123.714C28.1282 123.502 27.8033 123.396 27.4008 123.396ZM31.3687 122.877C31.3687 121.655 31.5876 120.699 32.0255 120.006C32.4704 119.314 33.2048 118.968 34.2288 118.968C35.2528 118.968 35.9837 119.314 36.4215 120.006C36.8664 120.699 37.0889 121.655 37.0889 122.877C37.0889 124.106 36.8664 125.07 36.4215 125.769C35.9837 126.468 35.2528 126.818 34.2288 126.818C33.2048 126.818 32.4704 126.468 32.0255 125.769C31.5876 125.07 31.3687 124.106 31.3687 122.877ZM35.627 122.877C35.627 122.355 35.5917 121.917 35.5211 121.564C35.4576 121.203 35.3234 120.91 35.1186 120.684C34.9209 120.458 34.6243 120.345 34.2288 120.345C33.8333 120.345 33.5332 120.458 33.3284 120.684C33.1306 120.91 32.9965 121.203 32.9259 121.564C32.8623 121.917 32.8305 122.355 32.8305 122.877C32.8305 123.414 32.8623 123.866 32.9259 124.233C32.9894 124.593 33.1236 124.886 33.3284 125.112C33.5332 125.331 33.8333 125.441 34.2288 125.441C34.6243 125.441 34.9244 125.331 35.1292 125.112C35.334 124.886 35.4682 124.593 35.5317 124.233C35.5953 123.866 35.627 123.414 35.627 122.877ZM40.5715 121.013C40.5715 120.476 40.7268 120.056 41.0375 119.752C41.3553 119.449 41.7614 119.297 42.2557 119.297C42.7501 119.297 43.1526 119.449 43.4633 119.752C43.7811 120.056 43.94 120.476 43.94 121.013C43.94 121.557 43.7811 121.98 43.4633 122.284C43.1526 122.588 42.7501 122.739 42.2557 122.739C41.7614 122.739 41.3553 122.588 41.0375 122.284C40.7268 121.98 40.5715 121.557 40.5715 121.013ZM47.3721 119.424L43.2091 126.839H41.7685L45.9209 119.424H47.3721ZM42.2451 120.187C41.8567 120.187 41.6625 120.462 41.6625 121.013C41.6625 121.571 41.8567 121.85 42.2451 121.85C42.4358 121.85 42.5841 121.783 42.69 121.648C42.796 121.507 42.8489 121.295 42.8489 121.013C42.8489 120.462 42.6477 120.187 42.2451 120.187ZM45.2218 125.239C45.2218 124.696 45.3771 124.275 45.6878 123.979C46.0056 123.675 46.4117 123.523 46.906 123.523C47.4004 123.523 47.7994 123.675 48.103 123.979C48.4138 124.275 48.5691 124.696 48.5691 125.239C48.5691 125.783 48.4138 126.207 48.103 126.51C47.7994 126.814 47.4004 126.966 46.906 126.966C46.4046 126.966 45.9986 126.814 45.6878 126.51C45.3771 126.207 45.2218 125.783 45.2218 125.239ZM46.8954 124.413C46.4929 124.413 46.2916 124.689 46.2916 125.239C46.2916 125.797 46.4929 126.076 46.8954 126.076C47.2909 126.076 47.4886 125.797 47.4886 125.239C47.4886 124.689 47.2909 124.413 46.8954 124.413Z" fill="#727680"/>
<path d="M26.278 104.667C26.3345 104.978 26.4616 105.218 26.6593 105.388C26.8641 105.55 27.136 105.631 27.475 105.631C27.9128 105.631 28.2306 105.451 28.4283 105.091C28.6261 104.724 28.7249 104.109 28.7249 103.248C28.5625 103.474 28.333 103.65 28.0364 103.778C27.7469 103.905 27.4326 103.968 27.0936 103.968C26.6417 103.968 26.2321 103.876 25.8648 103.693C25.5047 103.502 25.2187 103.223 25.0068 102.856C24.795 102.482 24.689 102.03 24.689 101.5C24.689 100.716 24.9221 100.095 25.3882 99.6357C25.8542 99.1696 26.4898 98.9365 27.2949 98.9365C28.2977 98.9365 29.0039 99.2579 29.4135 99.9005C29.8301 100.543 30.0385 101.511 30.0385 102.803C30.0385 103.721 29.9572 104.473 29.7948 105.059C29.6395 105.645 29.3676 106.09 28.9792 106.394C28.5978 106.698 28.0752 106.849 27.4114 106.849C26.8888 106.849 26.4439 106.751 26.0767 106.553C25.7095 106.348 25.427 106.083 25.2293 105.758C25.0386 105.426 24.9291 105.063 24.9009 104.667H26.278ZM27.4008 102.761C27.768 102.761 28.0576 102.648 28.2694 102.422C28.4813 102.196 28.5872 101.892 28.5872 101.511C28.5872 101.094 28.4742 100.773 28.2483 100.547C28.0293 100.314 27.7292 100.197 27.3479 100.197C26.9665 100.197 26.6628 100.317 26.4369 100.557C26.2179 100.79 26.1085 101.101 26.1085 101.489C26.1085 101.864 26.2144 102.171 26.4263 102.411C26.6452 102.644 26.97 102.761 27.4008 102.761ZM31.1928 102.877C31.1928 101.655 31.4118 100.699 31.8496 100.006C32.2945 99.3144 33.0289 98.9683 34.0529 98.9683C35.0769 98.9683 35.8078 99.3144 36.2457 100.006C36.6906 100.699 36.913 101.655 36.913 102.877C36.913 104.106 36.6906 105.07 36.2457 105.769C35.8078 106.468 35.0769 106.818 34.0529 106.818C33.0289 106.818 32.2945 106.468 31.8496 105.769C31.4118 105.07 31.1928 104.106 31.1928 102.877ZM35.4512 102.877C35.4512 102.355 35.4159 101.917 35.3453 101.564C35.2817 101.203 35.1475 100.91 34.9427 100.684C34.745 100.458 34.4484 100.345 34.0529 100.345C33.6575 100.345 33.3573 100.458 33.1525 100.684C32.9548 100.91 32.8206 101.203 32.75 101.564C32.6864 101.917 32.6547 102.355 32.6547 102.877C32.6547 103.414 32.6864 103.866 32.75 104.233C32.8136 104.593 32.9477 104.886 33.1525 105.112C33.3573 105.331 33.6575 105.441 34.0529 105.441C34.4484 105.441 34.7485 105.331 34.9533 105.112C35.1581 104.886 35.2923 104.593 35.3559 104.233C35.4194 103.866 35.4512 103.414 35.4512 102.877ZM40.3956 101.013C40.3956 100.476 40.551 100.056 40.8617 99.7522C41.1795 99.4485 41.5855 99.2967 42.0799 99.2967C42.5742 99.2967 42.9767 99.4485 43.2875 99.7522C43.6053 100.056 43.7641 100.476 43.7641 101.013C43.7641 101.557 43.6053 101.98 43.2875 102.284C42.9767 102.588 42.5742 102.739 42.0799 102.739C41.5855 102.739 41.1795 102.588 40.8617 102.284C40.551 101.98 40.3956 101.557 40.3956 101.013ZM47.1963 99.4238L43.0332 106.839H41.5926L45.745 99.4238H47.1963ZM42.0693 100.187C41.6809 100.187 41.4867 100.462 41.4867 101.013C41.4867 101.571 41.6809 101.85 42.0693 101.85C42.26 101.85 42.4083 101.783 42.5142 101.648C42.6201 101.507 42.6731 101.295 42.6731 101.013C42.6731 100.462 42.4718 100.187 42.0693 100.187ZM45.0459 105.239C45.0459 104.696 45.2013 104.275 45.512 103.979C45.8298 103.675 46.2358 103.523 46.7302 103.523C47.2245 103.523 47.6235 103.675 47.9272 103.979C48.2379 104.275 48.3933 104.696 48.3933 105.239C48.3933 105.783 48.2379 106.207 47.9272 106.51C47.6235 106.814 47.2245 106.966 46.7302 106.966C46.2288 106.966 45.8227 106.814 45.512 106.51C45.2013 106.207 45.0459 105.783 45.0459 105.239ZM46.7196 104.413C46.317 104.413 46.1158 104.689 46.1158 105.239C46.1158 105.797 46.317 106.076 46.7196 106.076C47.115 106.076 47.3128 105.797 47.3128 105.239C47.3128 104.689 47.115 104.413 46.7196 104.413Z" fill="#727680"/>
<path d="M25.3882 86.913C25.1198 86.913 24.8974 86.8318 24.7208 86.6694C24.5513 86.4999 24.4666 86.2916 24.4666 86.0444C24.4666 85.7972 24.5513 85.5924 24.7208 85.43C24.8974 85.2605 25.1198 85.1758 25.3882 85.1758C25.6495 85.1758 25.8648 85.2605 26.0343 85.43C26.2038 85.5924 26.2886 85.7972 26.2886 86.0444C26.2886 86.2916 26.2038 86.4999 26.0343 86.6694C25.8648 86.8318 25.6495 86.913 25.3882 86.913ZM27.1335 80.4831V79.1166H29.6864V86.8389H28.161V80.4831H27.1335ZM35.4946 86.8389L32.804 83.5445V86.8389H31.3209V79.445H32.804V82.7606L35.4946 79.445H37.2848L34.234 83.1102L37.3695 86.8389H35.4946ZM40.5301 81.0128C40.5301 80.4761 40.6854 80.0559 40.9962 79.7522C41.314 79.4485 41.72 79.2967 42.2144 79.2967C42.7087 79.2967 43.1112 79.4485 43.4219 79.7522C43.7397 80.0559 43.8986 80.4761 43.8986 81.0128C43.8986 81.5565 43.7397 81.9802 43.4219 82.2839C43.1112 82.5876 42.7087 82.7394 42.2144 82.7394C41.72 82.7394 41.314 82.5876 40.9962 82.2839C40.6854 81.9802 40.5301 81.5565 40.5301 81.0128ZM47.3307 79.4238L43.1677 86.8389H41.7271L45.8795 79.4238H47.3307ZM42.2038 80.1865C41.8154 80.1865 41.6212 80.4619 41.6212 81.0128C41.6212 81.5707 41.8154 81.8496 42.2038 81.8496C42.3944 81.8496 42.5427 81.7825 42.6487 81.6483C42.7546 81.5071 42.8076 81.2952 42.8076 81.0128C42.8076 80.4619 42.6063 80.1865 42.2038 80.1865ZM45.1804 85.2393C45.1804 84.6956 45.3357 84.2754 45.6465 83.9788C45.9643 83.6751 46.3703 83.5233 46.8646 83.5233C47.359 83.5233 47.758 83.6751 48.0616 83.9788C48.3724 84.2754 48.5277 84.6956 48.5277 85.2393C48.5277 85.7831 48.3724 86.2068 48.0616 86.5105C47.758 86.8142 47.359 86.966 46.8646 86.966C46.3633 86.966 45.9572 86.8142 45.6465 86.5105C45.3357 86.2068 45.1804 85.7831 45.1804 85.2393ZM46.8541 84.4131C46.4515 84.4131 46.2503 84.6885 46.2503 85.2393C46.2503 85.7972 46.4515 86.0762 46.8541 86.0762C47.2495 86.0762 47.4473 85.7972 47.4473 85.2393C47.4473 84.6885 47.2495 84.4131 46.8541 84.4131Z" fill="#727680"/>
<path d="M114.562 302.922C114.562 301.7 114.781 300.743 115.219 300.051C115.664 299.359 116.398 299.013 117.422 299.013C118.446 299.013 119.177 299.359 119.615 300.051C120.06 300.743 120.282 301.7 120.282 302.922C120.282 304.151 120.06 305.115 119.615 305.814C119.177 306.513 118.446 306.863 117.422 306.863C116.398 306.863 115.664 306.513 115.219 305.814C114.781 305.115 114.562 304.151 114.562 302.922ZM118.82 302.922C118.82 302.399 118.785 301.962 118.714 301.609C118.651 301.248 118.517 300.955 118.312 300.729C118.114 300.503 117.817 300.39 117.422 300.39C117.027 300.39 116.726 300.503 116.522 300.729C116.324 300.955 116.19 301.248 116.119 301.609C116.056 301.962 116.024 302.399 116.024 302.922C116.024 303.459 116.056 303.911 116.119 304.278C116.183 304.638 116.317 304.931 116.522 305.157C116.726 305.376 117.027 305.486 117.422 305.486C117.817 305.486 118.118 305.376 118.322 305.157C118.527 304.931 118.661 304.638 118.725 304.278C118.788 303.911 118.82 303.459 118.82 302.922ZM122.236 306.958C121.968 306.958 121.746 306.877 121.569 306.714C121.399 306.545 121.315 306.336 121.315 306.089C121.315 305.842 121.399 305.637 121.569 305.475C121.746 305.305 121.968 305.221 122.236 305.221C122.498 305.221 122.713 305.305 122.882 305.475C123.052 305.637 123.137 305.842 123.137 306.089C123.137 306.336 123.052 306.545 122.882 306.714C122.713 306.877 122.498 306.958 122.236 306.958ZM129.352 300.443H125.92V302.255C126.068 302.071 126.28 301.923 126.556 301.81C126.831 301.69 127.124 301.63 127.435 301.63C128 301.63 128.462 301.753 128.823 302C129.183 302.248 129.444 302.565 129.607 302.954C129.769 303.335 129.85 303.745 129.85 304.183C129.85 304.995 129.617 305.648 129.151 306.142C128.692 306.637 128.035 306.884 127.181 306.884C126.376 306.884 125.733 306.683 125.253 306.28C124.773 305.877 124.501 305.351 124.437 304.702H125.878C125.941 304.984 126.083 305.21 126.302 305.38C126.528 305.549 126.814 305.634 127.16 305.634C127.576 305.634 127.89 305.503 128.102 305.242C128.314 304.981 128.42 304.635 128.42 304.204C128.42 303.766 128.311 303.434 128.092 303.208C127.88 302.975 127.566 302.858 127.149 302.858C126.852 302.858 126.605 302.933 126.407 303.081C126.21 303.229 126.068 303.427 125.984 303.674H124.564V299.14H129.352V300.443Z" fill="#727680"/>
<path d="M164.382 300.528V299.162H166.935V306.884H165.409V300.528H164.382ZM169.226 306.958C168.958 306.958 168.735 306.877 168.559 306.714C168.389 306.545 168.304 306.336 168.304 306.089C168.304 305.842 168.389 305.637 168.559 305.475C168.735 305.305 168.958 305.221 169.226 305.221C169.487 305.221 169.703 305.305 169.872 305.475C170.042 305.637 170.126 305.842 170.126 306.089C170.126 306.336 170.042 306.545 169.872 306.714C169.703 306.877 169.487 306.958 169.226 306.958ZM176.342 300.443H172.91V302.255C173.058 302.071 173.27 301.923 173.545 301.81C173.821 301.69 174.114 301.63 174.425 301.63C174.99 301.63 175.452 301.753 175.812 302C176.173 302.248 176.434 302.565 176.596 302.954C176.759 303.335 176.84 303.745 176.84 304.183C176.84 304.995 176.607 305.648 176.141 306.142C175.682 306.637 175.025 306.884 174.17 306.884C173.365 306.884 172.723 306.683 172.243 306.28C171.762 305.877 171.49 305.351 171.427 304.702H172.868C172.931 304.984 173.072 305.21 173.291 305.38C173.517 305.549 173.803 305.634 174.149 305.634C174.566 305.634 174.88 305.503 175.092 305.242C175.304 304.981 175.41 304.635 175.41 304.204C175.41 303.766 175.3 303.434 175.081 303.208C174.87 302.975 174.555 302.858 174.139 302.858C173.842 302.858 173.595 302.933 173.397 303.081C173.199 303.229 173.058 303.427 172.973 303.674H171.554V299.14H176.342V300.443Z" fill="#727680"/>
<path d="M215.028 305.21C215.705 304.645 216.246 304.176 216.648 303.801C217.051 303.42 217.386 303.024 217.655 302.615C217.923 302.205 218.057 301.803 218.057 301.407C218.057 301.047 217.972 300.765 217.803 300.56C217.633 300.355 217.372 300.253 217.019 300.253C216.666 300.253 216.394 300.373 216.203 300.613C216.013 300.846 215.914 301.167 215.907 301.577H214.466C214.494 300.729 214.745 300.087 215.218 299.649C215.698 299.211 216.306 298.992 217.04 298.992C217.845 298.992 218.463 299.207 218.894 299.638C219.325 300.062 219.54 300.623 219.54 301.323C219.54 301.873 219.392 302.399 219.095 302.901C218.799 303.402 218.46 303.84 218.078 304.214C217.697 304.582 217.199 305.026 216.585 305.549H219.71V306.778H214.477V305.676L215.028 305.21ZM221.47 306.958C221.202 306.958 220.98 306.877 220.803 306.714C220.633 306.545 220.549 306.336 220.549 306.089C220.549 305.842 220.633 305.637 220.803 305.475C220.98 305.305 221.202 305.221 221.47 305.221C221.732 305.221 221.947 305.305 222.116 305.475C222.286 305.637 222.371 305.842 222.371 306.089C222.371 306.336 222.286 306.545 222.116 306.714C221.947 306.877 221.732 306.958 221.47 306.958ZM223.396 302.922C223.396 301.7 223.615 300.743 224.053 300.051C224.497 299.359 225.232 299.013 226.256 299.013C227.28 299.013 228.011 299.359 228.449 300.051C228.893 300.743 229.116 301.7 229.116 302.922C229.116 304.151 228.893 305.115 228.449 305.814C228.011 306.513 227.28 306.863 226.256 306.863C225.232 306.863 224.497 306.513 224.053 305.814C223.615 305.115 223.396 304.151 223.396 302.922ZM227.654 302.922C227.654 302.399 227.619 301.962 227.548 301.609C227.485 301.248 227.35 300.955 227.146 300.729C226.948 300.503 226.651 300.39 226.256 300.39C225.86 300.39 225.56 300.503 225.355 300.729C225.158 300.955 225.024 301.248 224.953 301.609C224.889 301.962 224.858 302.399 224.858 302.922C224.858 303.459 224.889 303.911 224.953 304.278C225.016 304.638 225.151 304.931 225.355 305.157C225.56 305.376 225.86 305.486 226.256 305.486C226.651 305.486 226.951 305.376 227.156 305.157C227.361 304.931 227.495 304.638 227.559 304.278C227.622 303.911 227.654 303.459 227.654 302.922Z" fill="#727680"/>
<path d="M265.028 305.21C265.705 304.645 266.246 304.176 266.648 303.801C267.051 303.42 267.386 303.024 267.655 302.615C267.923 302.205 268.057 301.803 268.057 301.407C268.057 301.047 267.972 300.765 267.803 300.56C267.633 300.355 267.372 300.253 267.019 300.253C266.666 300.253 266.394 300.373 266.203 300.613C266.013 300.846 265.914 301.167 265.907 301.577H264.466C264.494 300.729 264.745 300.087 265.218 299.649C265.698 299.211 266.306 298.992 267.04 298.992C267.845 298.992 268.463 299.207 268.894 299.638C269.325 300.062 269.54 300.623 269.54 301.323C269.54 301.873 269.392 302.399 269.095 302.901C268.799 303.402 268.46 303.84 268.078 304.214C267.697 304.582 267.199 305.026 266.585 305.549H269.71V306.778H264.477V305.676L265.028 305.21ZM271.47 306.958C271.202 306.958 270.98 306.877 270.803 306.714C270.633 306.545 270.549 306.336 270.549 306.089C270.549 305.842 270.633 305.637 270.803 305.475C270.98 305.305 271.202 305.221 271.47 305.221C271.732 305.221 271.947 305.305 272.116 305.475C272.286 305.637 272.371 305.842 272.371 306.089C272.371 306.336 272.286 306.545 272.116 306.714C271.947 306.877 271.732 306.958 271.47 306.958ZM278.586 300.443H275.154V302.255C275.302 302.071 275.514 301.923 275.79 301.81C276.065 301.69 276.358 301.63 276.669 301.63C277.234 301.63 277.696 301.753 278.057 302C278.417 302.248 278.678 302.565 278.841 302.954C279.003 303.335 279.084 303.745 279.084 304.183C279.084 304.995 278.851 305.648 278.385 306.142C277.926 306.637 277.269 306.884 276.415 306.884C275.61 306.884 274.967 306.683 274.487 306.28C274.007 305.877 273.735 305.351 273.671 304.702H275.112C275.175 304.984 275.317 305.21 275.536 305.38C275.762 305.549 276.048 305.634 276.394 305.634C276.81 305.634 277.124 305.503 277.336 305.242C277.548 304.981 277.654 304.635 277.654 304.204C277.654 303.766 277.545 303.434 277.326 303.208C277.114 302.975 276.8 302.858 276.383 302.858C276.086 302.858 275.839 302.933 275.641 303.081C275.444 303.229 275.302 303.427 275.218 303.674H273.798V299.14H278.586V300.443Z" fill="#727680"/>
<path d="M314.583 301.195C314.618 300.489 314.865 299.945 315.324 299.564C315.79 299.176 316.401 298.981 317.157 298.981C317.672 298.981 318.114 299.073 318.481 299.257C318.848 299.433 319.123 299.677 319.307 299.988C319.498 300.291 319.593 300.637 319.593 301.026C319.593 301.471 319.477 301.849 319.243 302.159C319.018 302.463 318.746 302.668 318.428 302.774V302.816C318.837 302.943 319.155 303.169 319.381 303.494C319.614 303.819 319.731 304.236 319.731 304.744C319.731 305.168 319.632 305.546 319.434 305.877C319.243 306.209 318.957 306.471 318.576 306.661C318.202 306.845 317.75 306.937 317.22 306.937C316.422 306.937 315.773 306.735 315.271 306.333C314.77 305.93 314.505 305.337 314.477 304.553H315.917C315.931 304.899 316.048 305.178 316.267 305.39C316.493 305.595 316.8 305.697 317.188 305.697C317.549 305.697 317.824 305.599 318.015 305.401C318.212 305.196 318.311 304.935 318.311 304.617C318.311 304.193 318.177 303.89 317.909 303.706C317.64 303.522 317.224 303.43 316.659 303.43H316.352V302.212H316.659C317.662 302.212 318.163 301.877 318.163 301.206C318.163 300.902 318.071 300.666 317.888 300.496C317.711 300.327 317.453 300.242 317.114 300.242C316.782 300.242 316.525 300.334 316.341 300.517C316.164 300.694 316.062 300.92 316.034 301.195H314.583ZM321.729 306.958C321.461 306.958 321.238 306.877 321.062 306.714C320.892 306.545 320.807 306.336 320.807 306.089C320.807 305.842 320.892 305.637 321.062 305.475C321.238 305.305 321.461 305.221 321.729 305.221C321.99 305.221 322.206 305.305 322.375 305.475C322.545 305.637 322.629 305.842 322.629 306.089C322.629 306.336 322.545 306.545 322.375 306.714C322.206 306.877 321.99 306.958 321.729 306.958ZM323.654 302.922C323.654 301.7 323.873 300.743 324.311 300.051C324.756 299.359 325.49 299.013 326.514 299.013C327.538 299.013 328.269 299.359 328.707 300.051C329.152 300.743 329.375 301.7 329.375 302.922C329.375 304.151 329.152 305.115 328.707 305.814C328.269 306.513 327.538 306.863 326.514 306.863C325.49 306.863 324.756 306.513 324.311 305.814C323.873 305.115 323.654 304.151 323.654 302.922ZM327.913 302.922C327.913 302.399 327.877 301.962 327.807 301.609C327.743 301.248 327.609 300.955 327.404 300.729C327.207 300.503 326.91 300.39 326.514 300.39C326.119 300.39 325.819 300.503 325.614 300.729C325.416 300.955 325.282 301.248 325.212 301.609C325.148 301.962 325.116 302.399 325.116 302.922C325.116 303.459 325.148 303.911 325.212 304.278C325.275 304.638 325.409 304.931 325.614 305.157C325.819 305.376 326.119 305.486 326.514 305.486C326.91 305.486 327.21 305.376 327.415 305.157C327.62 304.931 327.754 304.638 327.817 304.278C327.881 303.911 327.913 303.459 327.913 302.922Z" fill="#727680"/>
<path d="M364.583 301.195C364.618 300.489 364.865 299.945 365.324 299.564C365.79 299.176 366.401 298.981 367.157 298.981C367.672 298.981 368.114 299.073 368.481 299.257C368.848 299.433 369.123 299.677 369.307 299.988C369.498 300.291 369.593 300.637 369.593 301.026C369.593 301.471 369.477 301.849 369.243 302.159C369.018 302.463 368.746 302.668 368.428 302.774V302.816C368.837 302.943 369.155 303.169 369.381 303.494C369.614 303.819 369.731 304.236 369.731 304.744C369.731 305.168 369.632 305.546 369.434 305.877C369.243 306.209 368.957 306.471 368.576 306.661C368.202 306.845 367.75 306.937 367.22 306.937C366.422 306.937 365.773 306.735 365.271 306.333C364.77 305.93 364.505 305.337 364.477 304.553H365.917C365.931 304.899 366.048 305.178 366.267 305.39C366.493 305.595 366.8 305.697 367.188 305.697C367.549 305.697 367.824 305.599 368.015 305.401C368.212 305.196 368.311 304.935 368.311 304.617C368.311 304.193 368.177 303.89 367.909 303.706C367.64 303.522 367.224 303.43 366.659 303.43H366.352V302.212H366.659C367.662 302.212 368.163 301.877 368.163 301.206C368.163 300.902 368.071 300.666 367.888 300.496C367.711 300.327 367.453 300.242 367.114 300.242C366.782 300.242 366.525 300.334 366.341 300.517C366.164 300.694 366.062 300.92 366.034 301.195H364.583ZM371.729 306.958C371.461 306.958 371.238 306.877 371.062 306.714C370.892 306.545 370.807 306.336 370.807 306.089C370.807 305.842 370.892 305.637 371.062 305.475C371.238 305.305 371.461 305.221 371.729 305.221C371.99 305.221 372.206 305.305 372.375 305.475C372.545 305.637 372.629 305.842 372.629 306.089C372.629 306.336 372.545 306.545 372.375 306.714C372.206 306.877 371.99 306.958 371.729 306.958ZM378.845 300.443H375.413V302.255C375.561 302.071 375.773 301.923 376.048 301.81C376.324 301.69 376.617 301.63 376.928 301.63C377.493 301.63 377.955 301.753 378.315 302C378.675 302.248 378.937 302.565 379.099 302.954C379.262 303.335 379.343 303.745 379.343 304.183C379.343 304.995 379.11 305.648 378.644 306.142C378.185 306.637 377.528 306.884 376.673 306.884C375.868 306.884 375.226 306.683 374.745 306.28C374.265 305.877 373.993 305.351 373.93 304.702H375.37C375.434 304.984 375.575 305.21 375.794 305.38C376.02 305.549 376.306 305.634 376.652 305.634C377.069 305.634 377.383 305.503 377.595 305.242C377.807 304.981 377.913 304.635 377.913 304.204C377.913 303.766 377.803 303.434 377.584 303.208C377.372 302.975 377.058 302.858 376.642 302.858C376.345 302.858 376.098 302.933 375.9 303.081C375.702 303.229 375.561 303.427 375.476 303.674H374.057V299.14H378.845V300.443Z" fill="#727680"/>
<path d="M414.498 305.38V304.214L417.962 299.257H419.688V304.087H420.621V305.38H419.688V306.884H418.205V305.38H414.498ZM418.301 300.846L416.129 304.087H418.301V300.846ZM422.391 306.958C422.123 306.958 421.9 306.877 421.724 306.714C421.554 306.545 421.469 306.336 421.469 306.089C421.469 305.842 421.554 305.637 421.724 305.475C421.9 305.305 422.123 305.221 422.391 305.221C422.652 305.221 422.868 305.305 423.037 305.475C423.207 305.637 423.291 305.842 423.291 306.089C423.291 306.336 423.207 306.545 423.037 306.714C422.868 306.877 422.652 306.958 422.391 306.958ZM424.316 302.922C424.316 301.7 424.535 300.743 424.973 300.051C425.418 299.359 426.153 299.013 427.177 299.013C428.201 299.013 428.931 299.359 429.369 300.051C429.814 300.743 430.037 301.7 430.037 302.922C430.037 304.151 429.814 305.115 429.369 305.814C428.931 306.513 428.201 306.863 427.177 306.863C426.153 306.863 425.418 306.513 424.973 305.814C424.535 305.115 424.316 304.151 424.316 302.922ZM428.575 302.922C428.575 302.399 428.539 301.962 428.469 301.609C428.405 301.248 428.271 300.955 428.066 300.729C427.869 300.503 427.572 300.39 427.177 300.39C426.781 300.39 426.481 300.503 426.276 300.729C426.078 300.955 425.944 301.248 425.874 301.609C425.81 301.962 425.778 302.399 425.778 302.922C425.778 303.459 425.81 303.911 425.874 304.278C425.937 304.638 426.071 304.931 426.276 305.157C426.481 305.376 426.781 305.486 427.177 305.486C427.572 305.486 427.872 305.376 428.077 305.157C428.282 304.931 428.416 304.638 428.479 304.278C428.543 303.911 428.575 303.459 428.575 302.922Z" fill="#727680"/>
<path d="M464.498 305.38V304.214L467.962 299.257H469.688V304.087H470.621V305.38H469.688V306.884H468.205V305.38H464.498ZM468.301 300.846L466.129 304.087H468.301V300.846ZM472.391 306.958C472.123 306.958 471.9 306.877 471.724 306.714C471.554 306.545 471.469 306.336 471.469 306.089C471.469 305.842 471.554 305.637 471.724 305.475C471.9 305.305 472.123 305.221 472.391 305.221C472.652 305.221 472.868 305.305 473.037 305.475C473.207 305.637 473.291 305.842 473.291 306.089C473.291 306.336 473.207 306.545 473.037 306.714C472.868 306.877 472.652 306.958 472.391 306.958ZM479.507 300.443H476.075V302.255C476.223 302.071 476.435 301.923 476.71 301.81C476.986 301.69 477.279 301.63 477.59 301.63C478.155 301.63 478.617 301.753 478.977 302C479.337 302.248 479.599 302.565 479.761 302.954C479.924 303.335 480.005 303.745 480.005 304.183C480.005 304.995 479.772 305.648 479.306 306.142C478.847 306.637 478.19 306.884 477.335 306.884C476.53 306.884 475.888 306.683 475.408 306.28C474.927 305.877 474.655 305.351 474.592 304.702H476.032C476.096 304.984 476.237 305.21 476.456 305.38C476.682 305.549 476.968 305.634 477.314 305.634C477.731 305.634 478.045 305.503 478.257 305.242C478.469 304.981 478.575 304.635 478.575 304.204C478.575 303.766 478.465 303.434 478.246 303.208C478.035 302.975 477.72 302.858 477.304 302.858C477.007 302.858 476.76 302.933 476.562 303.081C476.364 303.229 476.223 303.427 476.138 303.674H474.719V299.14H479.507V300.443Z" fill="#727680"/>
<path d="M519.752 300.443H516.32V302.255C516.468 302.071 516.68 301.923 516.955 301.81C517.231 301.69 517.524 301.63 517.835 301.63C518.4 301.63 518.862 301.753 519.222 302C519.582 302.248 519.844 302.565 520.006 302.954C520.169 303.335 520.25 303.745 520.25 304.183C520.25 304.995 520.017 305.648 519.551 306.142C519.092 306.637 518.435 306.884 517.58 306.884C516.775 306.884 516.133 306.683 515.652 306.28C515.172 305.877 514.9 305.351 514.837 304.702H516.277C516.341 304.984 516.482 305.21 516.701 305.38C516.927 305.549 517.213 305.634 517.559 305.634C517.976 305.634 518.29 305.503 518.502 305.242C518.714 304.981 518.82 304.635 518.82 304.204C518.82 303.766 518.71 303.434 518.491 303.208C518.28 302.975 517.965 302.858 517.549 302.858C517.252 302.858 517.005 302.933 516.807 303.081C516.609 303.229 516.468 303.427 516.383 303.674H514.964V299.14H519.752V300.443ZM522.205 306.958C521.936 306.958 521.714 306.877 521.537 306.714C521.368 306.545 521.283 306.336 521.283 306.089C521.283 305.842 521.368 305.637 521.537 305.475C521.714 305.305 521.936 305.221 522.205 305.221C522.466 305.221 522.681 305.305 522.851 305.475C523.02 305.637 523.105 305.842 523.105 306.089C523.105 306.336 523.02 306.545 522.851 306.714C522.681 306.877 522.466 306.958 522.205 306.958ZM524.13 302.922C524.13 301.7 524.349 300.743 524.787 300.051C525.232 299.359 525.966 299.013 526.99 299.013C528.014 299.013 528.745 299.359 529.183 300.051C529.628 300.743 529.85 301.7 529.85 302.922C529.85 304.151 529.628 305.115 529.183 305.814C528.745 306.513 528.014 306.863 526.99 306.863C525.966 306.863 525.232 306.513 524.787 305.814C524.349 305.115 524.13 304.151 524.13 302.922ZM528.389 302.922C528.389 302.399 528.353 301.962 528.283 301.609C528.219 301.248 528.085 300.955 527.88 300.729C527.682 300.503 527.386 300.39 526.99 300.39C526.595 300.39 526.295 300.503 526.09 300.729C525.892 300.955 525.758 301.248 525.687 301.609C525.624 301.962 525.592 302.399 525.592 302.922C525.592 303.459 525.624 303.911 525.687 304.278C525.751 304.638 525.885 304.931 526.09 305.157C526.295 305.376 526.595 305.486 526.99 305.486C527.386 305.486 527.686 305.376 527.891 305.157C528.096 304.931 528.23 304.638 528.293 304.278C528.357 303.911 528.389 303.459 528.389 302.922Z" fill="#727680"/>
<path d="M74 265.3C80.9 262 165.1 135.8 407.5 101.5C407.5 101.5 502.5 84.0001 554 84.8001" stroke="#3F48BC" stroke-width="2" stroke-miterlimit="10"/>
<path d="M114.7 231.3C117.848 231.3 120.4 228.748 120.4 225.6C120.4 222.452 117.848 219.9 114.7 219.9C111.552 219.9 109 222.452 109 225.6C109 228.748 111.552 231.3 114.7 231.3Z" fill="#3F48BC" stroke="white" stroke-width="2" stroke-miterlimit="10"/>
<path d="M167.9 191C171.048 191 173.6 188.448 173.6 185.3C173.6 182.152 171.048 179.6 167.9 179.6C164.752 179.6 162.2 182.152 162.2 185.3C162.2 188.448 164.752 191 167.9 191Z" fill="#3F48BC" stroke="white" stroke-width="2" stroke-miterlimit="10"/>
<path d="M244 150.5C247.148 150.5 249.7 147.948 249.7 144.8C249.7 141.652 247.148 139.1 244 139.1C240.852 139.1 238.3 141.652 238.3 144.8C238.3 147.948 240.852 150.5 244 150.5Z" fill="#3F48BC" stroke="white" stroke-width="2" stroke-miterlimit="10"/>
<path d="M383.7 110.5C386.848 110.5 389.4 107.948 389.4 104.8C389.4 101.652 386.848 99.1001 383.7 99.1001C380.552 99.1001 378 101.652 378 104.8C378 107.948 380.552 110.5 383.7 110.5Z" fill="#3F48BC" stroke="white" stroke-width="2" stroke-miterlimit="10"/>
<path d="M548.3 90.5001C551.448 90.5001 554 87.9481 554 84.8001C554 81.6521 551.448 79.1001 548.3 79.1001C545.152 79.1001 542.6 81.6521 542.6 84.8001C542.6 87.9481 545.152 90.5001 548.3 90.5001Z" fill="#3F48BC" stroke="white" stroke-width="2" stroke-miterlimit="10"/>
<path d="M65.8304 27.3825C66.5704 27.3825 67.2171 27.5259 67.7704 27.8125C68.3304 28.0925 68.7604 28.4992 69.0604 29.0325C69.3671 29.5592 69.5204 30.1759 69.5204 30.8825C69.5204 31.5892 69.3671 32.2025 69.0604 32.7225C68.7604 33.2425 68.3304 33.6425 67.7704 33.9225C67.2171 34.1959 66.5704 34.3325 65.8304 34.3325H63.5604V27.3825H65.8304ZM65.8304 33.4025C66.6437 33.4025 67.2671 33.1825 67.7004 32.7425C68.1337 32.3025 68.3504 31.6825 68.3504 30.8825C68.3504 30.0759 68.1337 29.4459 67.7004 28.9925C67.2671 28.5392 66.6437 28.3125 65.8304 28.3125H64.7004V33.4025H65.8304ZM75.7002 31.4425C75.7002 31.6492 75.6869 31.8359 75.6602 32.0025H71.4502C71.4836 32.4425 71.6469 32.7959 71.9402 33.0625C72.2336 33.3292 72.5936 33.4625 73.0202 33.4625C73.6336 33.4625 74.0669 33.2059 74.3202 32.6925H75.5502C75.3836 33.1992 75.0802 33.6159 74.6402 33.9425C74.2069 34.2625 73.6669 34.4225 73.0202 34.4225C72.4936 34.4225 72.0202 34.3059 71.6002 34.0725C71.1869 33.8325 70.8602 33.4992 70.6202 33.0725C70.3869 32.6392 70.2702 32.1392 70.2702 31.5725C70.2702 31.0059 70.3836 30.5092 70.6102 30.0825C70.8436 29.6492 71.1669 29.3159 71.5802 29.0825C72.0002 28.8492 72.4802 28.7325 73.0202 28.7325C73.5402 28.7325 74.0036 28.8459 74.4102 29.0725C74.8169 29.2992 75.1336 29.6192 75.3602 30.0325C75.5869 30.4392 75.7002 30.9092 75.7002 31.4425ZM74.5102 31.0825C74.5036 30.6625 74.3536 30.3259 74.0602 30.0725C73.7669 29.8192 73.4036 29.6925 72.9702 29.6925C72.5769 29.6925 72.2402 29.8192 71.9602 30.0725C71.6802 30.3192 71.5136 30.6559 71.4602 31.0825H74.5102ZM78.1521 29.7525V32.8025C78.1521 33.0092 78.1988 33.1592 78.2921 33.2525C78.3921 33.3392 78.5588 33.3825 78.7921 33.3825H79.4921V34.3325H78.5921C78.0788 34.3325 77.6854 34.2125 77.4121 33.9725C77.1388 33.7325 77.0021 33.3425 77.0021 32.8025V29.7525H76.3521V28.8225H77.0021V27.4525H78.1521V28.8225H79.4921V29.7525H78.1521ZM80.1628 31.5525C80.1628 30.9992 80.2761 30.5092 80.5028 30.0825C80.7361 29.6559 81.0495 29.3259 81.4428 29.0925C81.8428 28.8525 82.2828 28.7325 82.7628 28.7325C83.1961 28.7325 83.5728 28.8192 83.8928 28.9925C84.2195 29.1592 84.4795 29.3692 84.6728 29.6225V28.8225H85.8228V34.3325H84.6728V33.5125C84.4795 33.7725 84.2161 33.9892 83.8828 34.1625C83.5495 34.3359 83.1695 34.4225 82.7428 34.4225C82.2695 34.4225 81.8361 34.3025 81.4428 34.0625C81.0495 33.8159 80.7361 33.4759 80.5028 33.0425C80.2761 32.6025 80.1628 32.1059 80.1628 31.5525ZM84.6728 31.5725C84.6728 31.1925 84.5928 30.8625 84.4328 30.5825C84.2795 30.3025 84.0761 30.0892 83.8228 29.9425C83.5695 29.7959 83.2961 29.7225 83.0028 29.7225C82.7095 29.7225 82.4361 29.7959 82.1828 29.9425C81.9295 30.0825 81.7228 30.2925 81.5628 30.5725C81.4095 30.8459 81.3328 31.1725 81.3328 31.5525C81.3328 31.9325 81.4095 32.2659 81.5628 32.5525C81.7228 32.8392 81.9295 33.0592 82.1828 33.2125C82.4428 33.3592 82.7161 33.4325 83.0028 33.4325C83.2961 33.4325 83.5695 33.3592 83.8228 33.2125C84.0761 33.0659 84.2795 32.8525 84.4328 32.5725C84.5928 32.2859 84.6728 31.9525 84.6728 31.5725ZM87.9002 28.0925C87.6935 28.0925 87.5202 28.0225 87.3802 27.8825C87.2402 27.7425 87.1702 27.5692 87.1702 27.3625C87.1702 27.1559 87.2402 26.9825 87.3802 26.8425C87.5202 26.7025 87.6935 26.6325 87.9002 26.6325C88.1002 26.6325 88.2702 26.7025 88.4102 26.8425C88.5502 26.9825 88.6202 27.1559 88.6202 27.3625C88.6202 27.5692 88.5502 27.7425 88.4102 27.8825C88.2702 28.0225 88.1002 28.0925 87.9002 28.0925ZM88.4602 28.8225V34.3325H87.3202V28.8225H88.4602ZM91.0969 26.9325V34.3325H89.9569V26.9325H91.0969ZM94.5936 34.4225C94.1603 34.4225 93.7703 34.3459 93.4236 34.1925C93.0836 34.0325 92.8136 33.8192 92.6136 33.5525C92.4136 33.2792 92.3069 32.9759 92.2936 32.6425H93.4736C93.4936 32.8759 93.6036 33.0725 93.8036 33.2325C94.0103 33.3859 94.2669 33.4625 94.5736 33.4625C94.8936 33.4625 95.1403 33.4025 95.3136 33.2825C95.4936 33.1559 95.5836 32.9959 95.5836 32.8025C95.5836 32.5959 95.4836 32.4425 95.2836 32.3425C95.0903 32.2425 94.7803 32.1325 94.3536 32.0125C93.9403 31.8992 93.6036 31.7892 93.3436 31.6825C93.0836 31.5759 92.8569 31.4125 92.6636 31.1925C92.4769 30.9725 92.3836 30.6825 92.3836 30.3225C92.3836 30.0292 92.4703 29.7625 92.6436 29.5225C92.8169 29.2759 93.0636 29.0825 93.3836 28.9425C93.7103 28.8025 94.0836 28.7325 94.5036 28.7325C95.1303 28.7325 95.6336 28.8925 96.0136 29.2125C96.4003 29.5259 96.6069 29.9559 96.6336 30.5025H95.4936C95.4736 30.2559 95.3736 30.0592 95.1936 29.9125C95.0136 29.7659 94.7703 29.6925 94.4636 29.6925C94.1636 29.6925 93.9336 29.7492 93.7736 29.8625C93.6136 29.9759 93.5336 30.1259 93.5336 30.3125C93.5336 30.4592 93.5869 30.5825 93.6936 30.6825C93.8003 30.7825 93.9303 30.8625 94.0836 30.9225C94.2369 30.9759 94.4636 31.0459 94.7636 31.1325C95.1636 31.2392 95.4903 31.3492 95.7436 31.4625C96.0036 31.5692 96.2269 31.7292 96.4136 31.9425C96.6003 32.1559 96.6969 32.4392 96.7036 32.7925C96.7036 33.1059 96.6169 33.3859 96.4436 33.6325C96.2703 33.8792 96.0236 34.0725 95.7036 34.2125C95.3903 34.3525 95.0203 34.4225 94.5936 34.4225Z" fill="#727680"/>
<path d="M134.7 40.0001H25.3C22.4 40.0001 20 37.6001 20 34.7001V25.4001C20 22.5001 22.4 20.1001 25.3 20.1001H134.6C137.5 20.1001 139.9 22.5001 139.9 25.4001V34.7001C140 37.6001 137.6 40.0001 134.7 40.0001Z" stroke="#B2B2B2" stroke-miterlimit="10"/>
<path d="M264.7 40.0001H155.3C152.4 40.0001 150 37.6001 150 34.7001V25.4001C150 22.5001 152.4 20.1001 155.3 20.1001H264.6C267.5 20.1001 269.9 22.5001 269.9 25.4001V34.7001C270 37.6001 267.6 40.0001 264.7 40.0001Z" fill="#B2B2B2"/>
<path d="M199.5 27.3085V34.3325H198.348V29.5219L196.205 34.3325H195.407L193.254 29.5219V34.3325H192.102V27.3085H193.345L195.811 32.8166L198.267 27.3085H199.5ZM206.118 31.4118C206.118 31.6206 206.105 31.8093 206.078 31.9777H201.823C201.857 32.4224 202.022 32.7795 202.318 33.049C202.615 33.3185 202.978 33.4533 203.41 33.4533C204.029 33.4533 204.467 33.1939 204.723 32.6751H205.966C205.798 33.1871 205.491 33.6082 205.047 33.9384C204.609 34.2618 204.063 34.4235 203.41 34.4235C202.877 34.4235 202.399 34.3056 201.974 34.0698C201.557 33.8272 201.227 33.4903 200.984 33.0591C200.748 32.6212 200.63 32.1158 200.63 31.5431C200.63 30.9704 200.745 30.4685 200.974 30.0373C201.21 29.5993 201.536 29.2625 201.954 29.0266C202.379 28.7908 202.864 28.6729 203.41 28.6729C203.935 28.6729 204.403 28.7875 204.814 29.0165C205.225 29.2456 205.545 29.569 205.774 29.9868C206.004 30.3977 206.118 30.8728 206.118 31.4118ZM204.915 31.0479C204.909 30.6235 204.757 30.2832 204.461 30.0272C204.164 29.7711 203.797 29.6431 203.359 29.6431C202.961 29.6431 202.621 29.7711 202.338 30.0272C202.055 30.2765 201.887 30.6167 201.833 31.0479H204.915ZM208.596 29.7038V32.7862C208.596 32.9951 208.643 33.1467 208.738 33.241C208.839 33.3286 209.007 33.3724 209.243 33.3724H209.95V34.3325H209.041C208.522 34.3325 208.124 34.2112 207.848 33.9687C207.572 33.7261 207.434 33.332 207.434 32.7862V29.7038H206.777V28.7639H207.434V27.3793H208.596V28.7639H209.95V29.7038H208.596ZM212.164 29.5724C212.333 29.2894 212.555 29.0704 212.831 28.9155C213.114 28.7538 213.448 28.6729 213.832 28.6729V29.8655H213.539C213.087 29.8655 212.744 29.98 212.508 30.2091C212.279 30.4382 212.164 30.8357 212.164 31.4017V34.3325H211.012V28.7639H212.164V29.5724ZM215.477 28.0261C215.268 28.0261 215.093 27.9554 214.952 27.8139C214.81 27.6724 214.739 27.4972 214.739 27.2883C214.739 27.0795 214.81 26.9043 214.952 26.7628C215.093 26.6213 215.268 26.5506 215.477 26.5506C215.679 26.5506 215.851 26.6213 215.993 26.7628C216.134 26.9043 216.205 27.0795 216.205 27.2883C216.205 27.4972 216.134 27.6724 215.993 27.8139C215.851 27.9554 215.679 28.0261 215.477 28.0261ZM216.043 28.7639V34.3325H214.891V28.7639H216.043ZM217.172 31.5431C217.172 30.9704 217.286 30.4685 217.515 30.0373C217.751 29.5993 218.075 29.2625 218.485 29.0266C218.896 28.7908 219.368 28.6729 219.9 28.6729C220.574 28.6729 221.13 28.8346 221.568 29.158C222.013 29.4747 222.312 29.9295 222.467 30.5224H221.224C221.123 30.2462 220.962 30.0305 220.739 29.8756C220.517 29.7206 220.237 29.6431 219.9 29.6431C219.429 29.6431 219.051 29.8116 218.768 30.1485C218.492 30.4786 218.354 30.9435 218.354 31.5431C218.354 32.1428 218.492 32.6111 218.768 32.9479C219.051 33.2848 219.429 33.4533 219.9 33.4533C220.567 33.4533 221.009 33.1602 221.224 32.574H222.467C222.306 33.14 222.003 33.5914 221.558 33.9283C221.113 34.2584 220.561 34.4235 219.9 34.4235C219.368 34.4235 218.896 34.3056 218.485 34.0698C218.075 33.8272 217.751 33.4903 217.515 33.0591C217.286 32.6212 217.172 32.1158 217.172 31.5431ZM225.637 34.4235C225.199 34.4235 224.805 34.346 224.454 34.191C224.111 34.0293 223.838 33.8137 223.636 33.5442C223.434 33.268 223.326 32.9614 223.312 32.6245H224.505C224.525 32.8603 224.636 33.0591 224.838 33.2208C225.047 33.3758 225.307 33.4533 225.617 33.4533C225.94 33.4533 226.189 33.3926 226.365 33.2713C226.546 33.1433 226.637 32.9816 226.637 32.7862C226.637 32.5774 226.536 32.4224 226.334 32.3213C226.139 32.2203 225.826 32.1091 225.394 31.9878C224.977 31.8733 224.636 31.7621 224.374 31.6543C224.111 31.5465 223.882 31.3814 223.686 31.1591C223.498 30.9368 223.403 30.6437 223.403 30.2798C223.403 29.9834 223.491 29.7139 223.666 29.4713C223.841 29.222 224.091 29.0266 224.414 28.8852C224.744 28.7437 225.121 28.6729 225.546 28.6729C226.179 28.6729 226.688 28.8346 227.072 29.158C227.463 29.4747 227.672 29.9093 227.699 30.4618H226.546C226.526 30.2125 226.425 30.0137 226.243 29.8655C226.061 29.7172 225.815 29.6431 225.506 29.6431C225.202 29.6431 224.97 29.7004 224.808 29.8149C224.646 29.9295 224.566 30.0811 224.566 30.2697C224.566 30.418 224.62 30.5426 224.727 30.6437C224.835 30.7447 224.967 30.8256 225.121 30.8862C225.276 30.9401 225.506 31.0109 225.809 31.0985C226.213 31.2063 226.543 31.3174 226.799 31.432C227.062 31.5398 227.288 31.7015 227.476 31.9171C227.665 32.1327 227.763 32.419 227.769 32.7761C227.769 33.0928 227.682 33.3758 227.507 33.6251C227.331 33.8744 227.082 34.0698 226.759 34.2112C226.442 34.3527 226.068 34.4235 225.637 34.4235Z" fill="white"/>
<path d="M559.5 28.9C559 28.5 558.4 28.7 558 29.2V29.3C557.6 24.1 553.2 20 548 20C542.5 20 538 24.5 538 30C538 35.5 542.5 40 548 40C548.7 40 549.4 39.4 549.4 38.6C549.4 37.8 548.8 37.2 548 37.2C544 37.2 540.8 33.9 540.8 30C540.8 26.1 544 22.8 548 22.8C551.7 22.8 554.8 25.6 555.2 29.2C554.8 28.7 554.3 28.7 553.8 29C553.3 29.4 553.2 30 553.5 30.5L555.6 33.6C555.9 34 556.2 34.1 556.7 34.1C557.2 34.1 557.5 33.9 557.8 33.6L559.9 30.5C560.1 29.9 559.9 29.3 559.5 28.9Z" fill="#727680"/>
<path d="M468.7 23.8C466.2 21.3 462.3 21.3 459.8 23.8C457.3 26.3 457.3 30.2 459.8 32.6C462 34.8 465.3 35 467.8 33.3C467.9 33.6 468 33.8 468.1 34L471.6 37.5C472.1 38 472.9 38 473.5 37.5C474 37 474 36.2 473.5 35.6L470 32.1C469.8 31.9 469.6 31.8 469.3 31.8C471.1 29.4 470.9 26 468.7 23.8ZM467.6 31.6C465.8 33.4001 462.8 33.4001 461 31.6C459.2 29.8 459.2 26.8 461 25C462.8 23.2 465.8 23.2 467.6 25C469.5 26.8 469.5 29.7 467.6 31.6Z" fill="#727680"/>
<path d="M482.805 32.1167C482.897 32.5795 483.096 32.9312 483.402 33.1719C483.707 33.4125 484.119 33.5329 484.638 33.5329C485.295 33.5329 485.776 33.2737 486.081 32.7554C486.387 32.237 486.54 31.3531 486.54 30.1035C486.317 30.4182 486.003 30.6635 485.596 30.8394C485.197 31.006 484.762 31.0893 484.29 31.0893C483.689 31.0893 483.143 30.9689 482.652 30.7283C482.162 30.4784 481.773 30.1128 481.486 29.6314C481.208 29.1409 481.069 28.5485 481.069 27.8543C481.069 26.8361 481.366 26.0262 481.958 25.4246C482.56 24.8137 483.383 24.5082 484.429 24.5082C485.688 24.5082 486.581 24.9294 487.109 25.7717C487.646 26.6047 487.914 27.8867 487.914 29.6176C487.914 30.8116 487.812 31.7881 487.609 32.5471C487.414 33.3061 487.072 33.88 486.581 34.2687C486.091 34.6575 485.41 34.8518 484.54 34.8518C483.55 34.8518 482.786 34.5927 482.249 34.0743C481.713 33.556 481.412 32.9034 481.347 32.1167H482.805ZM484.568 29.7564C485.123 29.7564 485.558 29.5852 485.873 29.2427C486.197 28.891 486.359 28.4282 486.359 27.8543C486.359 27.2156 486.188 26.7204 485.845 26.3687C485.512 26.0077 485.054 25.8272 484.471 25.8272C483.888 25.8272 483.425 26.0123 483.082 26.3826C482.749 26.7436 482.583 27.2203 482.583 27.8126C482.583 28.3773 482.745 28.8447 483.069 29.2149C483.402 29.5759 483.902 29.7564 484.568 29.7564ZM491.618 32.1167C491.71 32.5795 491.909 32.9312 492.215 33.1719C492.52 33.4125 492.932 33.5329 493.451 33.5329C494.108 33.5329 494.589 33.2737 494.895 32.7554C495.2 32.237 495.353 31.3531 495.353 30.1035C495.131 30.4182 494.816 30.6635 494.409 30.8394C494.011 31.006 493.576 31.0893 493.104 31.0893C492.502 31.0893 491.956 30.9689 491.465 30.7283C490.975 30.4784 490.586 30.1128 490.299 29.6314C490.021 29.1409 489.882 28.5485 489.882 27.8543C489.882 26.8361 490.179 26.0262 490.771 25.4246C491.373 24.8137 492.196 24.5082 493.242 24.5082C494.501 24.5082 495.394 24.9294 495.922 25.7717C496.459 26.6047 496.727 27.8867 496.727 29.6176C496.727 30.8116 496.625 31.7881 496.422 32.5471C496.227 33.3061 495.885 33.88 495.394 34.2687C494.904 34.6575 494.223 34.8518 493.353 34.8518C492.363 34.8518 491.599 34.5927 491.063 34.0743C490.526 33.556 490.225 32.9034 490.16 32.1167H491.618ZM493.381 29.7564C493.937 29.7564 494.372 29.5852 494.686 29.2427C495.01 28.891 495.172 28.4282 495.172 27.8543C495.172 27.2156 495.001 26.7204 494.659 26.3687C494.325 26.0077 493.867 25.8272 493.284 25.8272C492.701 25.8272 492.238 26.0123 491.896 26.3826C491.562 26.7436 491.396 27.2203 491.396 27.8126C491.396 28.3773 491.558 28.8447 491.882 29.2149C492.215 29.5759 492.715 29.7564 493.381 29.7564ZM501.816 27.1879C501.816 26.5122 502.011 25.9846 502.399 25.6051C502.797 25.2163 503.306 25.022 503.927 25.022C504.547 25.022 505.051 25.2163 505.44 25.6051C505.838 25.9846 506.037 26.5122 506.037 27.1879C506.037 27.8635 505.838 28.3958 505.44 28.7845C505.051 29.1733 504.547 29.3677 503.927 29.3677C503.306 29.3677 502.797 29.1733 502.399 28.7845C502.011 28.3958 501.816 27.8635 501.816 27.1879ZM510.285 25.2024L504.746 34.8657H503.191L508.73 25.2024H510.285ZM503.927 25.9799C503.343 25.9799 503.052 26.3826 503.052 27.1879C503.052 28.0024 503.343 28.4097 503.927 28.4097C504.204 28.4097 504.417 28.3125 504.565 28.1181C504.723 27.9145 504.801 27.6044 504.801 27.1879C504.801 26.3826 504.51 25.9799 503.927 25.9799ZM507.467 32.8664C507.467 32.1907 507.661 31.6631 508.05 31.2836C508.448 30.8949 508.957 30.7005 509.577 30.7005C510.188 30.7005 510.688 30.8949 511.077 31.2836C511.475 31.6631 511.674 32.1907 511.674 32.8664C511.674 33.5421 511.475 34.0743 511.077 34.4631C510.688 34.8518 510.188 35.0462 509.577 35.0462C508.957 35.0462 508.448 34.8518 508.05 34.4631C507.661 34.0743 507.467 33.5421 507.467 32.8664ZM509.563 31.6585C508.98 31.6585 508.689 32.0612 508.689 32.8664C508.689 33.6717 508.98 34.0743 509.563 34.0743C510.147 34.0743 510.438 33.6717 510.438 32.8664C510.438 32.0612 510.147 31.6585 509.563 31.6585Z" fill="#606060"/>
<path d="M520 13.7H448.5V45H520V13.7Z" stroke="#B2B2B2" stroke-miterlimit="10" stroke-linecap="round" stroke-linejoin="round"/>
<path d="M310 40C315.523 40 320 35.5228 320 30C320 24.4772 315.523 20 310 20C304.477 20 300 24.4772 300 30C300 35.5228 304.477 40 310 40Z" fill="#3F48BC"/>
<path d="M334.561 33.7597H331.651L331.151 35.1797H329.961L332.451 28.2197H333.771L336.261 35.1797H335.061L334.561 33.7597ZM334.241 32.8297L333.111 29.5997L331.971 32.8297H334.241ZM342.334 29.6697V35.1797H341.194V34.5297C341.014 34.7564 340.777 34.9364 340.484 35.0697C340.197 35.1964 339.89 35.2597 339.564 35.2597C339.13 35.2597 338.74 35.1697 338.394 34.9897C338.054 34.8097 337.784 34.543 337.584 34.1897C337.39 33.8364 337.294 33.4097 337.294 32.9097V29.6697H338.424V32.7397C338.424 33.233 338.547 33.613 338.794 33.8797C339.04 34.1397 339.377 34.2697 339.804 34.2697C340.23 34.2697 340.567 34.1397 340.814 33.8797C341.067 33.613 341.194 33.233 341.194 32.7397V29.6697H342.334ZM345.168 30.5997V33.6497C345.168 33.8564 345.214 34.0064 345.308 34.0997C345.408 34.1864 345.574 34.2297 345.808 34.2297H346.508V35.1797H345.608C345.094 35.1797 344.701 35.0597 344.428 34.8197C344.154 34.5797 344.018 34.1897 344.018 33.6497V30.5997H343.368V29.6697H344.018V28.2997H345.168V29.6697H346.508V30.5997H345.168ZM349.948 35.2697C349.428 35.2697 348.958 35.153 348.538 34.9197C348.118 34.6797 347.788 34.3464 347.548 33.9197C347.308 33.4864 347.188 32.9864 347.188 32.4197C347.188 31.8597 347.312 31.363 347.558 30.9297C347.805 30.4964 348.142 30.163 348.568 29.9297C348.995 29.6964 349.472 29.5797 349.998 29.5797C350.525 29.5797 351.002 29.6964 351.428 29.9297C351.855 30.163 352.192 30.4964 352.438 30.9297C352.685 31.363 352.808 31.8597 352.808 32.4197C352.808 32.9797 352.682 33.4764 352.428 33.9097C352.175 34.343 351.828 34.6797 351.388 34.9197C350.955 35.153 350.475 35.2697 349.948 35.2697ZM349.948 34.2797C350.242 34.2797 350.515 34.2097 350.768 34.0697C351.028 33.9297 351.238 33.7197 351.398 33.4397C351.558 33.1597 351.638 32.8197 351.638 32.4197C351.638 32.0197 351.562 31.683 351.408 31.4097C351.255 31.1297 351.052 30.9197 350.798 30.7797C350.545 30.6397 350.272 30.5697 349.978 30.5697C349.685 30.5697 349.412 30.6397 349.158 30.7797C348.912 30.9197 348.715 31.1297 348.568 31.4097C348.422 31.683 348.348 32.0197 348.348 32.4197C348.348 33.013 348.498 33.473 348.798 33.7997C349.105 34.1197 349.488 34.2797 349.948 34.2797ZM360.605 29.5797C361.039 29.5797 361.425 29.6697 361.765 29.8497C362.112 30.0297 362.382 30.2964 362.575 30.6497C362.775 31.003 362.875 31.4297 362.875 31.9297V35.1797H361.745V32.0997C361.745 31.6064 361.622 31.2297 361.375 30.9697C361.129 30.703 360.792 30.5697 360.365 30.5697C359.939 30.5697 359.599 30.703 359.345 30.9697C359.099 31.2297 358.975 31.6064 358.975 32.0997V35.1797H357.845V32.0997C357.845 31.6064 357.722 31.2297 357.475 30.9697C357.229 30.703 356.892 30.5697 356.465 30.5697C356.039 30.5697 355.699 30.703 355.445 30.9697C355.199 31.2297 355.075 31.6064 355.075 32.0997V35.1797H353.935V29.6697H355.075V30.2997C355.262 30.073 355.499 29.8964 355.785 29.7697C356.072 29.643 356.379 29.5797 356.705 29.5797C357.145 29.5797 357.539 29.673 357.885 29.8597C358.232 30.0464 358.499 30.3164 358.685 30.6697C358.852 30.3364 359.112 30.073 359.465 29.8797C359.819 29.6797 360.199 29.5797 360.605 29.5797ZM363.946 32.3997C363.946 31.8464 364.059 31.3564 364.286 30.9297C364.519 30.503 364.833 30.173 365.226 29.9397C365.626 29.6997 366.066 29.5797 366.546 29.5797C366.979 29.5797 367.356 29.6664 367.676 29.8397C368.003 30.0064 368.263 30.2164 368.456 30.4697V29.6697H369.606V35.1797H368.456V34.3597C368.263 34.6197 367.999 34.8364 367.666 35.0097C367.333 35.183 366.953 35.2697 366.526 35.2697C366.053 35.2697 365.619 35.1497 365.226 34.9097C364.833 34.663 364.519 34.323 364.286 33.8897C364.059 33.4497 363.946 32.953 363.946 32.3997ZM368.456 32.4197C368.456 32.0397 368.376 31.7097 368.216 31.4297C368.063 31.1497 367.859 30.9364 367.606 30.7897C367.353 30.643 367.079 30.5697 366.786 30.5697C366.493 30.5697 366.219 30.643 365.966 30.7897C365.713 30.9297 365.506 31.1397 365.346 31.4197C365.193 31.693 365.116 32.0197 365.116 32.3997C365.116 32.7797 365.193 33.113 365.346 33.3997C365.506 33.6864 365.713 33.9064 365.966 34.0597C366.226 34.2064 366.499 34.2797 366.786 34.2797C367.079 34.2797 367.353 34.2064 367.606 34.0597C367.859 33.913 368.063 33.6997 368.216 33.4197C368.376 33.133 368.456 32.7997 368.456 32.4197ZM372.433 30.5997V33.6497C372.433 33.8564 372.48 34.0064 372.573 34.0997C372.673 34.1864 372.84 34.2297 373.073 34.2297H373.773V35.1797H372.873C372.36 35.1797 371.967 35.0597 371.693 34.8197C371.42 34.5797 371.283 34.1897 371.283 33.6497V30.5997H370.633V29.6697H371.283V28.2997H372.433V29.6697H373.773V30.5997H372.433ZM375.404 28.9397C375.197 28.9397 375.024 28.8697 374.884 28.7297C374.744 28.5897 374.674 28.4164 374.674 28.2097C374.674 28.003 374.744 27.8297 374.884 27.6897C375.024 27.5497 375.197 27.4797 375.404 27.4797C375.604 27.4797 375.774 27.5497 375.914 27.6897C376.054 27.8297 376.124 28.003 376.124 28.2097C376.124 28.4164 376.054 28.5897 375.914 28.7297C375.774 28.8697 375.604 28.9397 375.404 28.9397ZM375.964 29.6697V35.1797H374.824V29.6697H375.964ZM379.851 35.2697C379.331 35.2697 378.861 35.153 378.441 34.9197C378.021 34.6797 377.691 34.3464 377.451 33.9197C377.211 33.4864 377.091 32.9864 377.091 32.4197C377.091 31.8597 377.214 31.363 377.461 30.9297C377.707 30.4964 378.044 30.163 378.471 29.9297C378.897 29.6964 379.374 29.5797 379.901 29.5797C380.427 29.5797 380.904 29.6964 381.331 29.9297C381.757 30.163 382.094 30.4964 382.341 30.9297C382.587 31.363 382.711 31.8597 382.711 32.4197C382.711 32.9797 382.584 33.4764 382.331 33.9097C382.077 34.343 381.731 34.6797 381.291 34.9197C380.857 35.153 380.377 35.2697 379.851 35.2697ZM379.851 34.2797C380.144 34.2797 380.417 34.2097 380.671 34.0697C380.931 33.9297 381.141 33.7197 381.301 33.4397C381.461 33.1597 381.541 32.8197 381.541 32.4197C381.541 32.0197 381.464 31.683 381.311 31.4097C381.157 31.1297 380.954 30.9197 380.701 30.7797C380.447 30.6397 380.174 30.5697 379.881 30.5697C379.587 30.5697 379.314 30.6397 379.061 30.7797C378.814 30.9197 378.617 31.1297 378.471 31.4097C378.324 31.683 378.251 32.0197 378.251 32.4197C378.251 33.013 378.401 33.473 378.701 33.7997C379.007 34.1197 379.391 34.2797 379.851 34.2797ZM386.618 29.5797C387.051 29.5797 387.438 29.6697 387.778 29.8497C388.124 30.0297 388.394 30.2964 388.588 30.6497C388.781 31.003 388.878 31.4297 388.878 31.9297V35.1797H387.748V32.0997C387.748 31.6064 387.624 31.2297 387.378 30.9697C387.131 30.703 386.794 30.5697 386.368 30.5697C385.941 30.5697 385.601 30.703 385.348 30.9697C385.101 31.2297 384.978 31.6064 384.978 32.0997V35.1797H383.838V29.6697H384.978V30.2997C385.164 30.073 385.401 29.8964 385.688 29.7697C385.981 29.643 386.291 29.5797 386.618 29.5797Z" fill="#727680"/>
</svg>
