<svg width="600" height="320" viewBox="0 0 600 320" fill="none" xmlns="http://www.w3.org/2000/svg">
<path d="M572 99H138C133.6 99 130 95.4 130 91V51C130 48.8 131.8 47 134 47H572C576.4 47 580 50.6 580 55V91C580 95.4 576.4 99 572 99Z" fill="white" stroke="#1DD1A1" stroke-miterlimit="10"/>
<path d="M572 289H528C523.6 289 520 285.4 520 281V241C520 238.8 521.8 237 524 237H572C576.4 237 580 240.6 580 245V281C580 285.4 576.4 289 572 289Z" fill="white" stroke="#6D86FF" stroke-miterlimit="10"/>
<path d="M260 193H138C133.6 193 130 189.4 130 185V145C130 142.8 131.8 141 134 141H260C264.4 141 268 144.6 268 149V185C268 189.4 264.4 193 260 193Z" fill="white" stroke="#FB6848" stroke-miterlimit="10"/>
<path d="M182 289H138C133.6 289 130 285.4 130 281V241C130 238.8 131.8 237 134 237H182C186.4 237 190 240.6 190 245V281C190 285.4 186.4 289 182 289Z" fill="white" stroke="#6D86FF" stroke-miterlimit="10"/>
<path d="M160 193V235.5" stroke="#6D86FF" stroke-miterlimit="10"/>
<path d="M260 289H216C211.6 289 208 285.4 208 281V241C208 238.8 209.8 237 212 237H260C264.4 237 268 240.6 268 245V281C268 285.4 264.4 289 260 289Z" fill="white" stroke="#6D86FF" stroke-miterlimit="10"/>
<path d="M238 193.5V236" stroke="#6D86FF" stroke-miterlimit="10"/>
<path d="M199 99V141" stroke="#FB6848" stroke-miterlimit="10"/>
<path d="M416 193H294C289.6 193 286 189.4 286 185V145C286 142.8 287.8 141 290 141H416C420.4 141 424 144.6 424 149V185C424 189.4 420.4 193 416 193Z" fill="white" stroke="#FB6848" stroke-miterlimit="10"/>
<path d="M338 289H294C289.6 289 286 285.4 286 281V241C286 238.8 287.8 237 290 237H338C342.4 237 346 240.6 346 245V281C346 285.4 342.4 289 338 289Z" fill="white" stroke="#6D86FF" stroke-miterlimit="10"/>
<path d="M316 193.5V236" stroke="#6D86FF" stroke-miterlimit="10"/>
<path d="M416 289H372C367.6 289 364 285.4 364 281V241C364 238.8 365.8 237 368 237H416C420.4 237 424 240.6 424 245V281C424 285.4 420.4 289 416 289Z" fill="white" stroke="#6D86FF" stroke-miterlimit="10"/>
<path d="M394 193.5V236" stroke="#6D86FF" stroke-miterlimit="10"/>
<path d="M355 99V141" stroke="#FB6848" stroke-miterlimit="10"/>
<path d="M572 193H450C445.6 193 442 189.4 442 185V145C442 142.8 443.8 141 446 141H572C576.4 141 580 144.6 580 149V185C580 189.4 576.4 193 572 193Z" fill="white" stroke="#FB6848" stroke-miterlimit="10"/>
<path d="M494 289H450C445.6 289 442 285.4 442 281V241C442 238.8 443.8 237 446 237H494C498.4 237 502 240.6 502 245V281C502 285.4 498.4 289 494 289Z" fill="white" stroke="#6D86FF" stroke-miterlimit="10"/>
<path d="M472 193.5V236" stroke="#6D86FF" stroke-miterlimit="10"/>
<path d="M511 99V141" stroke="#FB6848" stroke-miterlimit="10"/>
<path d="M500.1 32.3287C500.1 31.5549 500.278 30.8607 500.635 30.2462C500.999 29.6318 501.488 29.1538 502.103 28.8124C502.725 28.4635 503.404 28.289 504.139 28.289C504.981 28.289 505.729 28.4976 506.381 28.9149C507.041 29.3245 507.519 29.9087 507.815 30.6673H506.256C506.051 30.25 505.767 29.939 505.403 29.7342C505.038 29.5293 504.617 29.4269 504.139 29.4269C503.616 29.4269 503.149 29.5445 502.74 29.7797C502.33 30.0149 502.008 30.3524 501.773 30.7924C501.545 31.2324 501.431 31.7445 501.431 32.3287C501.431 32.9128 501.545 33.4249 501.773 33.8649C502.008 34.3049 502.33 34.6463 502.74 34.889C503.149 35.1242 503.616 35.2418 504.139 35.2418C504.617 35.2418 505.038 35.1394 505.403 34.9345C505.767 34.7297 506.051 34.4187 506.256 34.0014H507.815C507.519 34.76 507.041 35.3442 506.381 35.7538C505.729 36.1635 504.981 36.3683 504.139 36.3683C503.396 36.3683 502.717 36.1976 502.103 35.8563C501.488 35.5073 500.999 35.0256 500.635 34.4111C500.278 33.7966 500.1 33.1025 500.1 32.3287ZM512.053 36.4025C511.461 36.4025 510.926 36.2697 510.449 36.0042C509.971 35.7311 509.595 35.3518 509.322 34.8663C509.049 34.3731 508.912 33.8042 508.912 33.1594C508.912 32.5221 509.053 31.9569 509.333 31.4638C509.614 30.9707 509.997 30.5914 510.483 30.3259C510.968 30.0604 511.511 29.9276 512.11 29.9276C512.709 29.9276 513.252 30.0604 513.737 30.3259C514.223 30.5914 514.606 30.9707 514.886 31.4638C515.167 31.9569 515.308 32.5221 515.308 33.1594C515.308 33.7966 515.163 34.3618 514.875 34.8549C514.587 35.348 514.192 35.7311 513.692 36.0042C513.199 36.2697 512.652 36.4025 512.053 36.4025ZM512.053 35.2759C512.387 35.2759 512.698 35.1963 512.986 35.0369C513.282 34.8776 513.521 34.6387 513.703 34.32C513.885 34.0014 513.976 33.6145 513.976 33.1594C513.976 32.7042 513.889 32.3211 513.714 32.01C513.54 31.6914 513.309 31.4525 513.02 31.2931C512.732 31.1338 512.421 31.0542 512.087 31.0542C511.753 31.0542 511.442 31.1338 511.154 31.2931C510.873 31.4525 510.65 31.6914 510.483 32.01C510.316 32.3211 510.232 32.7042 510.232 33.1594C510.232 33.8345 510.403 34.358 510.744 34.7297C511.093 35.0938 511.53 35.2759 512.053 35.2759ZM524.18 29.9276C524.673 29.9276 525.113 30.03 525.5 30.2349C525.894 30.4397 526.202 30.7431 526.422 31.1452C526.649 31.5473 526.763 32.0328 526.763 32.6018V36.3H525.477V32.7952C525.477 32.2338 525.337 31.8052 525.056 31.5093C524.775 31.2059 524.392 31.0542 523.907 31.0542C523.421 31.0542 523.034 31.2059 522.746 31.5093C522.465 31.8052 522.325 32.2338 522.325 32.7952V36.3H521.039V32.7952C521.039 32.2338 520.899 31.8052 520.618 31.5093C520.338 31.2059 519.954 31.0542 519.469 31.0542C518.983 31.0542 518.596 31.2059 518.308 31.5093C518.028 31.8052 517.887 32.2338 517.887 32.7952V36.3H516.59V30.03H517.887V30.7469C518.1 30.489 518.369 30.288 518.695 30.1438C519.021 29.9997 519.37 29.9276 519.742 29.9276C520.243 29.9276 520.69 30.0338 521.085 30.2462C521.479 30.4587 521.783 30.7659 521.995 31.168C522.185 30.7887 522.481 30.489 522.883 30.269C523.285 30.0414 523.717 29.9276 524.18 29.9276ZM529.711 30.9518C529.931 30.6635 530.231 30.4207 530.61 30.2235C530.989 30.0262 531.418 29.9276 531.896 29.9276C532.442 29.9276 532.939 30.0642 533.387 30.3373C533.842 30.6028 534.198 30.9783 534.456 31.4638C534.714 31.9493 534.843 32.5069 534.843 33.1366C534.843 33.7662 534.714 34.3314 534.456 34.8321C534.198 35.3252 533.842 35.7121 533.387 35.9928C532.939 36.2659 532.442 36.4025 531.896 36.4025C531.418 36.4025 530.993 36.3076 530.621 36.118C530.25 35.9207 529.946 35.678 529.711 35.3897V39.2814H528.414V30.03H529.711V30.9518ZM533.523 33.1366C533.523 32.7042 533.432 32.3325 533.25 32.0214C533.075 31.7028 532.84 31.4638 532.544 31.3045C532.256 31.1376 531.945 31.0542 531.611 31.0542C531.285 31.0542 530.974 31.1376 530.678 31.3045C530.39 31.4714 530.155 31.7142 529.973 32.0328C529.798 32.3514 529.711 32.7269 529.711 33.1594C529.711 33.5918 529.798 33.9711 529.973 34.2973C530.155 34.6159 530.39 34.8587 530.678 35.0256C530.974 35.1925 531.285 35.2759 531.611 35.2759C531.945 35.2759 532.256 35.1925 532.544 35.0256C532.84 34.8511 533.075 34.6007 533.25 34.2745C533.432 33.9483 533.523 33.569 533.523 33.1366ZM537.423 27.8793V36.3H536.126V27.8793H537.423ZM544.873 33.0114C544.873 33.2466 544.858 33.459 544.827 33.6487H540.037C540.075 34.1494 540.26 34.5514 540.594 34.8549C540.928 35.1583 541.338 35.31 541.823 35.31C542.521 35.31 543.014 35.018 543.303 34.4338H544.702C544.513 35.0104 544.167 35.4845 543.667 35.8563C543.174 36.2204 542.559 36.4025 541.823 36.4025C541.224 36.4025 540.685 36.2697 540.207 36.0042C539.737 35.7311 539.365 35.3518 539.092 34.8663C538.827 34.3731 538.694 33.8042 538.694 33.1594C538.694 32.5145 538.823 31.9493 539.081 31.4638C539.346 30.9707 539.714 30.5914 540.185 30.3259C540.663 30.0604 541.209 29.9276 541.823 29.9276C542.415 29.9276 542.942 30.0566 543.405 30.3145C543.868 30.5724 544.228 30.9366 544.486 31.4069C544.744 31.8697 544.873 32.4045 544.873 33.0114ZM543.519 32.6018C543.511 32.1238 543.34 31.7407 543.007 31.4525C542.673 31.1642 542.259 31.02 541.766 31.02C541.319 31.02 540.936 31.1642 540.617 31.4525C540.298 31.7331 540.109 32.1162 540.048 32.6018H543.519ZM548.835 33.1252L550.861 36.3H549.393L548.038 34.1721L546.764 36.3H545.41L547.435 33.2162L545.41 30.03H546.878L548.232 32.158L549.506 30.03H550.861L548.835 33.1252ZM559.893 28.3914V29.4497H557.788V36.3H556.491V29.4497H554.374V28.3914H559.893ZM560.775 33.1366C560.775 32.5069 560.904 31.9493 561.162 31.4638C561.427 30.9783 561.784 30.6028 562.231 30.3373C562.686 30.0642 563.187 29.9276 563.733 29.9276C564.226 29.9276 564.655 30.0262 565.019 30.2235C565.391 30.4131 565.687 30.6521 565.907 30.9404V30.03H567.215V36.3H565.907V35.3669C565.687 35.6628 565.387 35.9094 565.008 36.1066C564.629 36.3038 564.196 36.4025 563.711 36.4025C563.172 36.4025 562.679 36.2659 562.231 35.9928C561.784 35.7121 561.427 35.3252 561.162 34.8321C560.904 34.3314 560.775 33.7662 560.775 33.1366ZM565.907 33.1594C565.907 32.7269 565.816 32.3514 565.634 32.0328C565.459 31.7142 565.228 31.4714 564.94 31.3045C564.651 31.1376 564.34 31.0542 564.006 31.0542C563.673 31.0542 563.362 31.1376 563.073 31.3045C562.785 31.4638 562.55 31.7028 562.368 32.0214C562.193 32.3325 562.106 32.7042 562.106 33.1366C562.106 33.569 562.193 33.9483 562.368 34.2745C562.55 34.6007 562.785 34.8511 563.073 35.0256C563.369 35.1925 563.68 35.2759 564.006 35.2759C564.34 35.2759 564.651 35.1925 564.94 35.0256C565.228 34.8587 565.459 34.6159 565.634 34.2973C565.816 33.9711 565.907 33.5918 565.907 33.1594ZM571.195 36.4025C570.702 36.4025 570.258 36.3152 569.864 36.1407C569.477 35.9587 569.17 35.7159 568.942 35.4125C568.714 35.1014 568.593 34.7563 568.578 34.3769H569.921C569.943 34.6425 570.069 34.8663 570.296 35.0483C570.531 35.2228 570.823 35.31 571.172 35.31C571.537 35.31 571.817 35.2418 572.014 35.1052C572.219 34.9611 572.322 34.779 572.322 34.559C572.322 34.3238 572.208 34.1494 571.98 34.0356C571.76 33.9218 571.408 33.7966 570.922 33.66C570.452 33.5311 570.069 33.4059 569.773 33.2845C569.477 33.1631 569.219 32.9773 568.999 32.7269C568.787 32.4766 568.68 32.1466 568.68 31.7369C568.68 31.4031 568.779 31.0997 568.976 30.8266C569.173 30.5459 569.454 30.3259 569.818 30.1666C570.19 30.0073 570.615 29.9276 571.093 29.9276C571.806 29.9276 572.379 30.1097 572.811 30.4738C573.251 30.8304 573.486 31.3197 573.517 31.9418H572.219C572.197 31.6611 572.083 31.4373 571.878 31.2704C571.673 31.1035 571.396 31.02 571.047 31.02C570.706 31.02 570.444 31.0845 570.262 31.2135C570.08 31.3425 569.989 31.5131 569.989 31.7256C569.989 31.8925 570.05 32.0328 570.171 32.1466C570.292 32.2604 570.44 32.3514 570.615 32.4197C570.789 32.4804 571.047 32.56 571.389 32.6587C571.844 32.78 572.216 32.9052 572.504 33.0342C572.8 33.1556 573.054 33.3376 573.266 33.5804C573.479 33.8231 573.589 34.1456 573.596 34.5476C573.596 34.9042 573.498 35.2228 573.3 35.5035C573.103 35.7842 572.822 36.0042 572.458 36.1635C572.102 36.3228 571.681 36.4025 571.195 36.4025ZM577.479 33.1707L580.369 36.3H578.617L576.295 33.6031V36.3H574.998V27.8793H576.295V32.7725L578.571 30.03H580.369L577.479 33.1707Z" fill="#727680"/>
<path d="M543.1 124.463V132.3H541.815V126.932L539.424 132.3H538.533L536.131 126.932V132.3H534.846V124.463H536.233L538.984 130.609L541.725 124.463H543.1ZM550.485 129.041C550.485 129.274 550.47 129.485 550.44 129.673H545.692C545.73 130.169 545.914 130.567 546.245 130.868C546.576 131.169 546.982 131.319 547.463 131.319C548.154 131.319 548.643 131.03 548.929 130.451H550.316C550.128 131.022 549.786 131.492 549.29 131.86C548.801 132.221 548.192 132.402 547.463 132.402C546.869 132.402 546.335 132.27 545.861 132.007C545.395 131.736 545.027 131.36 544.756 130.879C544.493 130.39 544.362 129.827 544.362 129.188C544.362 128.549 544.489 127.988 544.745 127.507C545.008 127.019 545.373 126.643 545.839 126.38C546.313 126.117 546.854 125.985 547.463 125.985C548.049 125.985 548.572 126.113 549.03 126.368C549.489 126.624 549.846 126.985 550.102 127.451C550.357 127.91 550.485 128.44 550.485 129.041ZM549.143 128.635C549.136 128.161 548.966 127.782 548.636 127.496C548.305 127.21 547.895 127.068 547.406 127.068C546.963 127.068 546.583 127.21 546.267 127.496C545.952 127.774 545.764 128.154 545.704 128.635H549.143ZM551.322 129.165C551.322 128.541 551.449 127.988 551.705 127.507C551.968 127.026 552.322 126.654 552.765 126.391C553.216 126.12 553.716 125.985 554.265 125.985C554.671 125.985 555.069 126.075 555.46 126.256C555.859 126.429 556.174 126.662 556.408 126.955V123.955H557.704V132.3H556.408V131.364C556.197 131.665 555.904 131.913 555.528 132.108C555.16 132.304 554.735 132.402 554.254 132.402C553.712 132.402 553.216 132.266 552.765 131.996C552.322 131.717 551.968 131.334 551.705 130.845C551.449 130.349 551.322 129.789 551.322 129.165ZM556.408 129.188C556.408 128.759 556.317 128.387 556.137 128.071C555.964 127.755 555.735 127.515 555.449 127.349C555.163 127.184 554.855 127.101 554.524 127.101C554.193 127.101 553.885 127.184 553.6 127.349C553.314 127.507 553.081 127.744 552.9 128.06C552.727 128.368 552.641 128.737 552.641 129.165C552.641 129.594 552.727 129.969 552.9 130.293C553.081 130.616 553.314 130.864 553.6 131.037C553.893 131.202 554.201 131.285 554.524 131.285C554.855 131.285 555.163 131.202 555.449 131.037C555.735 130.872 555.964 130.631 556.137 130.315C556.317 129.992 556.408 129.616 556.408 129.188ZM560.047 125.263C559.814 125.263 559.618 125.184 559.461 125.026C559.303 124.869 559.224 124.673 559.224 124.44C559.224 124.207 559.303 124.011 559.461 123.854C559.618 123.696 559.814 123.617 560.047 123.617C560.273 123.617 560.464 123.696 560.622 123.854C560.78 124.011 560.859 124.207 560.859 124.44C560.859 124.673 560.78 124.869 560.622 125.026C560.464 125.184 560.273 125.263 560.047 125.263ZM560.679 126.086V132.3H559.393V126.086H560.679ZM567.994 126.086V132.3H566.708V131.567C566.505 131.823 566.238 132.026 565.907 132.176C565.584 132.319 565.238 132.39 564.87 132.39C564.381 132.39 563.941 132.289 563.55 132.086C563.167 131.883 562.863 131.582 562.637 131.184C562.419 130.785 562.31 130.304 562.31 129.74V126.086H563.584V129.548C563.584 130.105 563.723 130.533 564.001 130.834C564.28 131.127 564.659 131.274 565.14 131.274C565.622 131.274 566.001 131.127 566.279 130.834C566.565 130.533 566.708 130.105 566.708 129.548V126.086H567.994ZM577.211 125.985C577.7 125.985 578.136 126.086 578.52 126.289C578.911 126.492 579.215 126.793 579.433 127.192C579.659 127.59 579.771 128.071 579.771 128.635V132.3H578.497V128.827C578.497 128.27 578.358 127.846 578.08 127.552C577.802 127.252 577.422 127.101 576.941 127.101C576.46 127.101 576.076 127.252 575.791 127.552C575.512 127.846 575.373 128.27 575.373 128.827V132.3H574.099V128.827C574.099 128.27 573.96 127.846 573.682 127.552C573.404 127.252 573.024 127.101 572.543 127.101C572.062 127.101 571.678 127.252 571.393 127.552C571.114 127.846 570.975 128.27 570.975 128.827V132.3H569.69V126.086H570.975V126.797C571.186 126.541 571.453 126.342 571.776 126.199C572.099 126.056 572.445 125.985 572.813 125.985C573.31 125.985 573.753 126.09 574.144 126.301C574.535 126.511 574.836 126.816 575.046 127.214C575.234 126.838 575.527 126.541 575.926 126.323C576.324 126.098 576.753 125.985 577.211 125.985Z" fill="#727680"/>
<path d="M543.496 307.381C542.96 307.381 542.477 307.289 542.047 307.105C541.618 306.913 541.28 306.644 541.035 306.299C540.79 305.954 540.667 305.552 540.667 305.092H542.07C542.101 305.437 542.235 305.721 542.473 305.943C542.718 306.165 543.059 306.276 543.496 306.276C543.949 306.276 544.301 306.169 544.554 305.954C544.808 305.732 544.934 305.448 544.934 305.103C544.934 304.835 544.854 304.616 544.693 304.448C544.539 304.279 544.344 304.149 544.106 304.057C543.876 303.965 543.554 303.865 543.14 303.758C542.618 303.62 542.193 303.482 541.863 303.344C541.541 303.198 541.265 302.976 541.035 302.677C540.805 302.378 540.69 301.979 540.69 301.48C540.69 301.02 540.805 300.618 541.035 300.273C541.265 299.928 541.587 299.663 542.001 299.479C542.415 299.295 542.894 299.203 543.439 299.203C544.213 299.203 544.846 299.399 545.337 299.79C545.835 300.173 546.111 300.702 546.165 301.377H544.716C544.693 301.086 544.554 300.836 544.301 300.629C544.048 300.422 543.715 300.319 543.301 300.319C542.925 300.319 542.618 300.415 542.381 300.606C542.143 300.798 542.024 301.074 542.024 301.434C542.024 301.68 542.097 301.883 542.243 302.044C542.396 302.197 542.588 302.32 542.818 302.412C543.048 302.504 543.362 302.604 543.761 302.711C544.29 302.857 544.719 303.002 545.049 303.148C545.386 303.294 545.67 303.52 545.9 303.827C546.138 304.126 546.257 304.528 546.257 305.034C546.257 305.441 546.145 305.824 545.923 306.184C545.708 306.545 545.39 306.836 544.969 307.059C544.554 307.273 544.064 307.381 543.496 307.381ZM548.471 300.123C548.233 300.123 548.034 300.043 547.873 299.882C547.712 299.721 547.631 299.521 547.631 299.284C547.631 299.046 547.712 298.847 547.873 298.686C548.034 298.525 548.233 298.444 548.471 298.444C548.701 298.444 548.896 298.525 549.057 298.686C549.218 298.847 549.299 299.046 549.299 299.284C549.299 299.521 549.218 299.721 549.057 299.882C548.896 300.043 548.701 300.123 548.471 300.123ZM549.115 300.963V307.3H547.804V300.963H549.115ZM558.508 300.859C559.006 300.859 559.451 300.963 559.842 301.17C560.24 301.377 560.551 301.684 560.773 302.09C561.003 302.496 561.118 302.987 561.118 303.562V307.3H559.819V303.758C559.819 303.19 559.677 302.757 559.393 302.458C559.11 302.151 558.722 301.998 558.232 301.998C557.741 301.998 557.35 302.151 557.058 302.458C556.775 302.757 556.633 303.19 556.633 303.758V307.3H555.333V303.758C555.333 303.19 555.191 302.757 554.908 302.458C554.624 302.151 554.237 301.998 553.746 301.998C553.255 301.998 552.864 302.151 552.573 302.458C552.289 302.757 552.147 303.19 552.147 303.758V307.3H550.836V300.963H552.147V301.687C552.362 301.427 552.634 301.224 552.964 301.078C553.294 300.932 553.646 300.859 554.022 300.859C554.528 300.859 554.981 300.967 555.379 301.181C555.778 301.396 556.085 301.707 556.299 302.113C556.491 301.73 556.79 301.427 557.197 301.204C557.603 300.974 558.04 300.859 558.508 300.859ZM564.098 301.894C564.32 301.603 564.623 301.358 565.007 301.158C565.39 300.959 565.823 300.859 566.306 300.859C566.858 300.859 567.36 300.997 567.813 301.273C568.273 301.542 568.633 301.921 568.894 302.412C569.155 302.903 569.285 303.466 569.285 304.103C569.285 304.739 569.155 305.31 568.894 305.816C568.633 306.315 568.273 306.706 567.813 306.99C567.36 307.266 566.858 307.404 566.306 307.404C565.823 307.404 565.394 307.308 565.018 307.116C564.642 306.917 564.336 306.671 564.098 306.38V310.313H562.787V300.963H564.098V301.894ZM567.951 304.103C567.951 303.666 567.859 303.29 567.675 302.976C567.498 302.654 567.261 302.412 566.962 302.251C566.67 302.082 566.356 301.998 566.019 301.998C565.689 301.998 565.375 302.082 565.076 302.251C564.784 302.42 564.547 302.665 564.362 302.987C564.186 303.309 564.098 303.689 564.098 304.126C564.098 304.563 564.186 304.946 564.362 305.276C564.547 305.598 564.784 305.843 565.076 306.012C565.375 306.181 565.689 306.265 566.019 306.265C566.356 306.265 566.67 306.181 566.962 306.012C567.261 305.836 567.498 305.583 567.675 305.253C567.859 304.923 567.951 304.54 567.951 304.103ZM571.893 298.789V307.3H570.582V298.789H571.893ZM579.422 303.976C579.422 304.214 579.407 304.429 579.376 304.62H574.534C574.573 305.126 574.76 305.533 575.098 305.839C575.435 306.146 575.849 306.299 576.34 306.299C577.045 306.299 577.544 306.004 577.835 305.414H579.25C579.058 305.997 578.709 306.476 578.203 306.852C577.705 307.22 577.084 307.404 576.34 307.404C575.734 307.404 575.19 307.269 574.707 307.001C574.231 306.725 573.856 306.342 573.58 305.851C573.311 305.353 573.177 304.777 573.177 304.126C573.177 303.474 573.307 302.903 573.568 302.412C573.837 301.914 574.208 301.53 574.684 301.262C575.167 300.994 575.719 300.859 576.34 300.859C576.938 300.859 577.471 300.99 577.939 301.25C578.406 301.511 578.771 301.879 579.031 302.355C579.292 302.822 579.422 303.363 579.422 303.976ZM578.054 303.562C578.046 303.079 577.873 302.692 577.536 302.401C577.199 302.109 576.781 301.963 576.282 301.963C575.83 301.963 575.443 302.109 575.121 302.401C574.799 302.684 574.607 303.071 574.546 303.562H578.054Z" fill="#727680"/>
<path d="M550 193.2V235.8" stroke="#6D86FF" stroke-miterlimit="10"/>
<path d="M26.1201 107.426V109.733H29.2171V111.195H26.1201V113.633H29.6125V115.136H24.275V105.924H29.6125V107.426H26.1201ZM35.3219 115.136L33.8195 112.869L32.4885 115.136H30.5116L32.897 111.472L30.4853 107.835H32.5675L34.0568 110.088L35.401 107.835H37.3778L34.9793 111.472L37.4042 115.136H35.3219ZM40.2514 108.889C40.4886 108.555 40.8137 108.278 41.2266 108.059C41.6483 107.83 42.1272 107.716 42.6631 107.716C43.2869 107.716 43.8492 107.87 44.35 108.177C44.8596 108.485 45.2593 108.924 45.5493 109.495C45.848 110.058 45.9974 110.712 45.9974 111.459C45.9974 112.206 45.848 112.869 45.5493 113.449C45.2593 114.02 44.8596 114.464 44.35 114.78C43.8492 115.096 43.2869 115.254 42.6631 115.254C42.1272 115.254 41.6527 115.145 41.2398 114.925C40.8356 114.705 40.5062 114.429 40.2514 114.095V118.615H38.4063V107.835H40.2514V108.889ZM44.1128 111.459C44.1128 111.02 44.0205 110.642 43.836 110.326C43.6603 110 43.4231 109.754 43.1244 109.588C42.8344 109.421 42.5181 109.337 42.1755 109.337C41.8416 109.337 41.5253 109.425 41.2266 109.601C40.9367 109.768 40.6994 110.014 40.5149 110.339C40.3392 110.664 40.2514 111.046 40.2514 111.485C40.2514 111.925 40.3392 112.307 40.5149 112.632C40.6994 112.957 40.9367 113.207 41.2266 113.383C41.5253 113.55 41.8416 113.633 42.1755 113.633C42.5181 113.633 42.8344 113.546 43.1244 113.37C43.4231 113.194 43.6603 112.944 43.836 112.619C44.0205 112.294 44.1128 111.907 44.1128 111.459ZM54.1252 111.327C54.1252 111.591 54.1077 111.828 54.0725 112.039H48.7351C48.779 112.566 48.9635 112.979 49.2886 113.278C49.6137 113.576 50.0134 113.726 50.4879 113.726C51.1732 113.726 51.6608 113.431 51.9507 112.843H53.9407C53.7299 113.546 53.3257 114.125 52.7283 114.582C52.1308 115.03 51.3972 115.254 50.5274 115.254C49.8245 115.254 49.1919 115.101 48.6296 114.793C48.0761 114.477 47.6412 114.033 47.3249 113.462C47.0174 112.891 46.8637 112.232 46.8637 111.485C46.8637 110.73 47.0174 110.066 47.3249 109.495C47.6324 108.924 48.0629 108.485 48.6165 108.177C49.17 107.87 49.807 107.716 50.5274 107.716C51.2215 107.716 51.8409 107.866 52.3856 108.164C52.9391 108.463 53.3653 108.889 53.664 109.443C53.9715 109.987 54.1252 110.616 54.1252 111.327ZM52.2143 110.8C52.2055 110.326 52.0342 109.948 51.7003 109.667C51.3665 109.377 50.9579 109.232 50.4747 109.232C50.0178 109.232 49.6312 109.372 49.3149 109.653C49.0074 109.926 48.8185 110.308 48.7482 110.8H52.2143ZM57.317 108.968C57.5542 108.582 57.8617 108.278 58.2395 108.059C58.6261 107.839 59.0654 107.729 59.5574 107.729V109.667H59.0698C58.4899 109.667 58.0506 109.803 57.7519 110.075C57.462 110.348 57.317 110.822 57.317 111.498V115.136H55.472V107.835H57.317V108.968ZM62.9483 109.35V112.882C62.9483 113.128 63.0054 113.308 63.1196 113.423C63.2426 113.528 63.4447 113.581 63.7259 113.581H64.5825V115.136H63.4227C61.8676 115.136 61.0901 114.38 61.0901 112.869V109.35H60.2203V107.835H61.0901V106.029H62.9483V107.835H64.5825V109.35H62.9483Z" fill="#727680"/>
<path d="M22.457 203.566C22.457 202.669 22.6572 201.868 23.0576 201.163C23.4668 200.45 24.0195 199.897 24.7159 199.505C25.421 199.105 26.2088 198.904 27.0793 198.904C28.0978 198.904 28.9901 199.166 29.7561 199.688C30.5221 200.21 31.0575 200.933 31.3622 201.855H29.2599C29.051 201.42 28.755 201.094 28.372 200.876C27.9977 200.658 27.5625 200.55 27.0663 200.55C26.5353 200.55 26.0609 200.676 25.643 200.928C25.2339 201.172 24.9118 201.52 24.6768 201.973C24.4504 202.426 24.3373 202.957 24.3373 203.566C24.3373 204.167 24.4504 204.698 24.6768 205.159C24.9118 205.612 25.2339 205.964 25.643 206.217C26.0609 206.46 26.5353 206.582 27.0663 206.582C27.5625 206.582 27.9977 206.473 28.372 206.256C28.755 206.029 29.051 205.699 29.2599 205.263H31.3622C31.0575 206.195 30.5221 206.922 29.7561 207.444C28.9988 207.958 28.1065 208.214 27.0793 208.214C26.2088 208.214 25.421 208.018 24.7159 207.627C24.0195 207.226 23.4668 206.674 23.0576 205.968C22.6572 205.263 22.457 204.463 22.457 203.566ZM34.7516 202.025C34.9866 201.642 35.2913 201.342 35.6656 201.124C36.0486 200.907 36.4839 200.798 36.9713 200.798V202.717H36.4882C35.9137 202.717 35.4784 202.852 35.1825 203.122C34.8952 203.392 34.7516 203.862 34.7516 204.532V208.136H32.9235V200.902H34.7516V202.025ZM41.4147 208.254C40.7183 208.254 40.0916 208.101 39.5345 207.796C38.9773 207.483 38.5377 207.044 38.2157 206.478C37.9023 205.912 37.7456 205.259 37.7456 204.519C37.7456 203.779 37.9066 203.126 38.2287 202.56C38.5595 201.995 39.0078 201.559 39.5736 201.255C40.1395 200.941 40.7706 200.785 41.467 200.785C42.1634 200.785 42.7945 200.941 43.3603 201.255C43.9261 201.559 44.3701 201.995 44.6921 202.56C45.0229 203.126 45.1883 203.779 45.1883 204.519C45.1883 205.259 45.0186 205.912 44.6791 206.478C44.3483 207.044 43.8956 207.483 43.3211 207.796C42.7553 208.101 42.1198 208.254 41.4147 208.254ZM41.4147 206.66C41.7455 206.66 42.0545 206.582 42.3418 206.425C42.6378 206.26 42.8728 206.016 43.0469 205.694C43.221 205.372 43.3081 204.98 43.3081 204.519C43.3081 203.831 43.1252 203.305 42.7596 202.939C42.4027 202.565 41.9631 202.378 41.4408 202.378C40.9185 202.378 40.4789 202.565 40.122 202.939C39.7738 203.305 39.5997 203.831 39.5997 204.519C39.5997 205.207 39.7695 205.738 40.109 206.112C40.4572 206.478 40.8924 206.66 41.4147 206.66ZM56.5573 200.902L54.442 208.136H52.4704L51.1516 203.083L49.8328 208.136H47.848L45.7197 200.902H47.5738L48.8535 206.412L50.2376 200.902H52.17L53.528 206.399L54.8076 200.902H56.5573ZM57.0764 204.493C57.0764 203.762 57.22 203.113 57.5073 202.547C57.8032 201.982 58.2037 201.546 58.7085 201.242C59.2134 200.937 59.7749 200.785 60.3929 200.785C60.863 200.785 61.3113 200.889 61.7379 201.098C62.1644 201.298 62.5039 201.568 62.7563 201.908V198.474H64.6105V208.136H62.7563V207.065C62.53 207.422 62.2123 207.709 61.8031 207.927C61.394 208.145 60.9196 208.254 60.3799 208.254C59.7705 208.254 59.2134 208.097 58.7085 207.783C58.2037 207.47 57.8032 207.03 57.5073 206.465C57.22 205.89 57.0764 205.233 57.0764 204.493ZM62.7694 204.519C62.7694 204.075 62.6823 203.696 62.5082 203.383C62.3341 203.061 62.0991 202.817 61.8031 202.652C61.5072 202.478 61.1895 202.391 60.85 202.391C60.5105 202.391 60.1971 202.473 59.9098 202.639C59.6226 202.804 59.3875 203.048 59.2047 203.37C59.0306 203.683 58.9436 204.058 58.9436 204.493C58.9436 204.928 59.0306 205.311 59.2047 205.642C59.3875 205.964 59.6226 206.212 59.9098 206.386C60.2058 206.56 60.5192 206.647 60.85 206.647C61.1895 206.647 61.5072 206.565 61.8031 206.399C62.0991 206.225 62.3341 205.982 62.5082 205.668C62.6823 205.346 62.7694 204.963 62.7694 204.519Z" fill="#727680"/>
<path d="M44.4803 301.357H40.7626L40.1475 303.136H38.1817L41.5382 293.788H43.718L47.0746 303.136H45.0954L44.4803 301.357ZM43.9721 299.86L42.6214 295.955L41.2708 299.86H43.9721ZM50.2014 293.802V303.136H48.3292V293.802H50.2014Z" fill="#727680"/>
<path d="M72 73H74" stroke="#1DD1A1" stroke-miterlimit="10"/>
<path d="M78.2 73H126.4" stroke="#1DD1A1" stroke-miterlimit="10" stroke-dasharray="4.19 4.19"/>
<path d="M128.5 73H130.5" stroke="#1DD1A1" stroke-miterlimit="10"/>
<path d="M130.2 76.8C132.3 76.8 134 75.1 134 73C134 70.9 132.3 69.2 130.2 69.2C128.1 69.2 126.4 70.9 126.4 73C126.4 75.1 128.2 76.8 130.2 76.8Z" fill="white"/>
<path d="M130.2 77.3C127.9 77.3 125.9 75.4 125.9 73C125.9 70.6 127.8 68.7 130.2 68.7C132.5 68.7 134.5 70.6 134.5 73C134.5 75.4 132.6 77.3 130.2 77.3C132.6 77.3 127.9 77.3 130.2 77.3ZM130.2 69.7C128.4 69.7 126.9 71.2 126.9 73C126.9 74.8 128.4 76.3 130.2 76.3C132 76.3 133.5 74.8 133.5 73C133.5 71.2 132 69.7 130.2 69.7C132 69.7 128.4 69.7 130.2 69.7Z" fill="#1DD1A1"/>
<path d="M71.5 166.7H73.5" stroke="#FB6848" stroke-miterlimit="10"/>
<path d="M77.7 166.7H125.9" stroke="#FB6848" stroke-miterlimit="10" stroke-dasharray="4.19 4.19"/>
<path d="M128 166.7H130" stroke="#FB6848" stroke-miterlimit="10"/>
<path d="M129.8 170.5C131.9 170.5 133.6 168.8 133.6 166.7C133.6 164.6 131.9 162.9 129.8 162.9C127.7 162.9 126 164.6 126 166.7C126 168.8 127.7 170.5 129.8 170.5Z" fill="white"/>
<path d="M129.8 171C127.5 171 125.5 169.1 125.5 166.7C125.5 164.3 127.4 162.4 129.8 162.4C132.1 162.4 134.1 164.3 134.1 166.7C134.1 169.1 132.1 171 129.8 171C132.1 171 127.4 171 129.8 171ZM129.8 163.4C128 163.4 126.5 164.9 126.5 166.7C126.5 168.5 128 170 129.8 170C131.6 170 133.1 168.5 133.1 166.7C133.1 164.9 131.6 163.4 129.8 163.4C131.6 163.4 128 163.4 129.8 163.4Z" fill="#FB6848"/>
<path d="M71.5 260.9H73.5" stroke="#6D86FF" stroke-miterlimit="10"/>
<path d="M77.7 260.9H125.9" stroke="#6D86FF" stroke-miterlimit="10" stroke-dasharray="4.19 4.19"/>
<path d="M128 260.9H130" stroke="#6D86FF" stroke-miterlimit="10"/>
<path d="M129.8 264.7C131.9 264.7 133.6 263 133.6 260.9C133.6 258.8 131.9 257.1 129.8 257.1C127.7 257.1 126 258.8 126 260.9C126 263 127.7 264.7 129.8 264.7Z" fill="white"/>
<path d="M129.8 265.2C127.5 265.2 125.5 263.3 125.5 260.9C125.5 258.5 127.4 256.6 129.8 256.6C132.1 256.6 134.1 258.5 134.1 260.9C134.1 263.3 132.1 265.2 129.8 265.2C132.1 265.2 127.4 265.2 129.8 265.2ZM129.8 257.7C128 257.7 126.5 259.2 126.5 261C126.5 262.8 128 264.3 129.8 264.3C131.6 264.3 133.1 262.8 133.1 261C133.1 259.2 131.6 257.7 129.8 257.7C131.6 257.7 128 257.7 129.8 257.7Z" fill="#6D86FF"/>
<path d="M366.7 59.1H365.3V58C365.3 57.4 364.8 56.9 364.2 56.9C363.6 56.9 363.1 57.4 363.1 58V59.1H356.2V58C356.2 57.4 355.7 56.9 355.1 56.9C354.5 56.9 354 57.4 354 58V59.1H347V58C347 57.4 346.5 56.9 345.9 56.9C345.3 56.9 344.8 57.4 344.8 58V59.1H343.4C341 59.1 339.1 60.9 339.1 63.1V85C339.1 87.2 341 89 343.4 89H366.7C369.1 89 371 87.2 371 85V63.2C371 60.9 369.1 59.1 366.7 59.1ZM368.7 85C368.7 86.1 367.8 86.9 366.6 86.9H343.3C342.2 86.9 341.3 86 341.2 85V63.2C341.2 62.1 342.1 61.3 343.3 61.3H344.7V62.4C344.7 63 345.2 63.5 345.8 63.5C346.4 63.5 346.9 63 346.9 62.4V61.3H353.8V62.4C353.8 63 354.3 63.5 354.9 63.5C355.5 63.5 356 63 356 62.4V61.3H362.9V62.4C362.9 63 363.4 63.5 364 63.5C364.6 63.5 365.1 63 365.1 62.4V61.3H366.5C367.6 61.3 368.5 62.2 368.6 63.2L368.7 85Z" fill="#1DD1A1"/>
<path d="M350.8 68L348.2 70.4L346.7 69C346.3 68.6 345.5 68.6 345.1 69C344.6 69.4 344.6 70.1 345.1 70.5L347.4 72.6C347.8 73 348.6 73 349 72.6L352.4 69.4C352.8 69 352.8 68.3 352.4 67.9C351.9 67.6 351.2 67.6 350.8 68ZM364.1 69.8H356.1C355.5 69.8 355 70.3 355 70.9C355 71.5 355.5 72 356.1 72H364.1C364.7 72 365.2 71.5 365.2 70.9C365.2 70.3 364.8 69.8 364.1 69.8ZM350.8 77.6L348.2 80L346.7 78.6C346.3 78.2 345.5 78.2 345.1 78.6C344.6 79 344.6 79.7 345.1 80.1L347.4 82.2C347.8 82.6 348.6 82.6 349 82.2L352.4 79C352.8 78.6 352.8 77.9 352.4 77.5C351.9 77.2 351.2 77.2 350.8 77.6ZM364.1 79.4H356.1C355.5 79.4 355 79.9 355 80.5C355 81.1 355.5 81.6 356.1 81.6H364.1C364.7 81.6 365.2 81.1 365.2 80.5C365.2 79.9 364.8 79.4 364.1 79.4Z" fill="#1DD1A1"/>
<path d="M210.7 153.1H209.3V152C209.3 151.4 208.8 150.9 208.2 150.9C207.6 150.9 207.1 151.4 207.1 152V153.1H200.2V152C200.2 151.4 199.7 150.9 199.1 150.9C198.5 150.9 198 151.4 198 152V153.1H191V152C191 151.4 190.5 150.9 189.9 150.9C189.3 150.9 188.8 151.4 188.8 152V153.1H187.4C185 153.1 183.1 154.9 183.1 157.1V179C183.1 181.2 185 183 187.4 183H210.7C213.1 183 215 181.2 215 179V157.2C215 154.9 213.1 153.1 210.7 153.1ZM212.7 179C212.7 180.1 211.8 180.9 210.6 180.9H187.3C186.2 180.9 185.3 180 185.2 179V157.2C185.2 156.1 186.1 155.3 187.3 155.3H188.7V156.4C188.7 157 189.2 157.5 189.8 157.5C190.4 157.5 190.9 157 190.9 156.4V155.3H197.8V156.4C197.8 157 198.3 157.5 198.9 157.5C199.5 157.5 200 157 200 156.4V155.3H206.9V156.4C206.9 157 207.4 157.5 208 157.5C208.6 157.5 209.1 157 209.1 156.4V155.3H210.5C211.6 155.3 212.5 156.2 212.6 157.2L212.7 179Z" fill="#FB6848"/>
<path d="M194.8 162L192.2 164.4L190.7 163C190.3 162.6 189.5 162.6 189.1 163C188.6 163.4 188.6 164.1 189.1 164.5L191.4 166.6C191.8 167 192.6 167 193 166.6L196.4 163.4C196.8 163 196.8 162.3 196.4 161.9C195.9 161.6 195.2 161.6 194.8 162ZM208.1 163.8H200.1C199.5 163.8 199 164.3 199 164.9C199 165.5 199.5 166 200.1 166H208.1C208.7 166 209.2 165.5 209.2 164.9C209.3 164.3 208.8 163.8 208.1 163.8ZM194.8 171.6L192.2 174L190.7 172.6C190.3 172.2 189.5 172.2 189.1 172.6C188.6 173 188.6 173.7 189.1 174.1L191.4 176.2C191.8 176.6 192.6 176.6 193 176.2L196.4 173C196.8 172.6 196.8 171.9 196.4 171.5C195.9 171.2 195.2 171.2 194.8 171.6ZM208.1 173.4H200.1C199.5 173.4 199 173.9 199 174.5C199 175.1 199.5 175.6 200.1 175.6H208.1C208.7 175.6 209.2 175.1 209.2 174.5C209.3 173.9 208.8 173.4 208.1 173.4Z" fill="#FB6848"/>
<path d="M366.7 153.1H365.3V152C365.3 151.4 364.8 150.9 364.2 150.9C363.6 150.9 363.1 151.4 363.1 152V153.1H356.2V152C356.2 151.4 355.7 150.9 355.1 150.9C354.5 150.9 354 151.4 354 152V153.1H347V152C347 151.4 346.5 150.9 345.9 150.9C345.3 150.9 344.8 151.4 344.8 152V153.1H343.4C341 153.1 339.1 154.9 339.1 157.1V179C339.1 181.2 341 183 343.4 183H366.7C369.1 183 371 181.2 371 179V157.2C371 154.9 369.1 153.1 366.7 153.1ZM368.7 179C368.7 180.1 367.8 180.9 366.6 180.9H343.3C342.2 180.9 341.3 180 341.2 179V157.2C341.2 156.1 342.1 155.3 343.3 155.3H344.7V156.4C344.7 157 345.2 157.5 345.8 157.5C346.4 157.5 346.9 157 346.9 156.4V155.3H353.8V156.4C353.8 157 354.3 157.5 354.9 157.5C355.5 157.5 356 157 356 156.4V155.3H362.9V156.4C362.9 157 363.4 157.5 364 157.5C364.6 157.5 365.1 157 365.1 156.4V155.3H366.5C367.6 155.3 368.5 156.2 368.6 157.2L368.7 179Z" fill="#FB6848"/>
<path d="M350.8 162L348.2 164.4L346.7 163C346.3 162.6 345.5 162.6 345.1 163C344.6 163.4 344.6 164.1 345.1 164.5L347.4 166.6C347.8 167 348.6 167 349 166.6L352.4 163.4C352.8 163 352.8 162.3 352.4 161.9C351.9 161.6 351.2 161.6 350.8 162ZM364.1 163.8H356.1C355.5 163.8 355 164.3 355 164.9C355 165.5 355.5 166 356.1 166H364.1C364.7 166 365.2 165.5 365.2 164.9C365.3 164.3 364.8 163.8 364.1 163.8ZM350.8 171.6L348.2 174L346.7 172.6C346.3 172.2 345.5 172.2 345.1 172.6C344.7 173 344.6 173.7 345.1 174.1L347.4 176.2C347.8 176.6 348.6 176.6 349 176.2L352.4 173C352.8 172.6 352.8 171.9 352.4 171.5C351.9 171.2 351.2 171.2 350.8 171.6ZM364.1 173.4H356.1C355.5 173.4 355 173.9 355 174.5C355 175.1 355.5 175.6 356.1 175.6H364.1C364.7 175.6 365.2 175.1 365.2 174.5C365.3 173.9 364.8 173.4 364.1 173.4Z" fill="#FB6848"/>
<path d="M522.7 153.1H521.3V152C521.3 151.4 520.8 150.9 520.2 150.9C519.6 150.9 519.1 151.4 519.1 152V153.1H512.2V152C512.2 151.4 511.7 150.9 511.1 150.9C510.5 150.9 510 151.4 510 152V153.1H503V152C503 151.4 502.5 150.9 501.9 150.9C501.3 150.9 500.8 151.4 500.8 152V153.1H499.4C497 153.1 495.1 154.9 495.1 157.1V179C495.1 181.2 497 183 499.4 183H522.7C525.1 183 527 181.2 527 179V157.2C527 154.9 525.1 153.1 522.7 153.1ZM524.7 179C524.7 180.1 523.8 180.9 522.6 180.9H499.3C498.2 180.9 497.3 180 497.2 179V157.2C497.2 156.1 498.1 155.3 499.3 155.3H500.7V156.4C500.7 157 501.2 157.5 501.8 157.5C502.4 157.5 502.9 157 502.9 156.4V155.3H509.8V156.4C509.8 157 510.3 157.5 510.9 157.5C511.5 157.5 512 157 512 156.4V155.3H518.9V156.4C518.9 157 519.4 157.5 520 157.5C520.6 157.5 521.1 157 521.1 156.4V155.3H522.5C523.6 155.3 524.5 156.2 524.6 157.2L524.7 179Z" fill="#FB6848"/>
<path d="M506.8 162L504.2 164.4L502.7 163C502.3 162.6 501.5 162.6 501.1 163C500.6 163.4 500.6 164.1 501.1 164.5L503.4 166.6C503.8 167 504.6 167 505 166.6L508.4 163.4C508.8 163 508.8 162.3 508.4 161.9C507.9 161.6 507.2 161.6 506.8 162ZM520.1 163.8H512.1C511.5 163.8 511 164.3 511 164.9C511 165.5 511.5 166 512.1 166H520.1C520.7 166 521.2 165.5 521.2 164.9C521.3 164.3 520.8 163.8 520.1 163.8ZM506.8 171.6L504.2 174L502.7 172.6C502.3 172.2 501.5 172.2 501.1 172.6C500.7 173 500.6 173.7 501.1 174.1L503.4 176.2C503.8 176.6 504.6 176.6 505 176.2L508.4 173C508.8 172.6 508.8 171.9 508.4 171.5C507.9 171.2 507.2 171.2 506.8 171.6ZM520.1 173.4H512.1C511.5 173.4 511 173.9 511 174.5C511 175.1 511.5 175.6 512.1 175.6H520.1C520.7 175.6 521.2 175.1 521.2 174.5C521.3 173.9 520.8 173.4 520.1 173.4Z" fill="#FB6848"/>
<path d="M171.7 249.1H170.3V248C170.3 247.4 169.8 246.9 169.2 246.9C168.6 246.9 168.1 247.4 168.1 248V249.1H161.2V248C161.2 247.4 160.7 246.9 160.1 246.9C159.5 246.9 159 247.4 159 248V249.1H152V248C152 247.4 151.5 246.9 150.9 246.9C150.3 246.9 149.8 247.4 149.8 248V249.1H148.4C146 249.1 144.1 250.9 144.1 253.1V275C144.1 277.2 146 279 148.4 279H171.7C174.1 279 176 277.2 176 275V253.2C176 250.9 174.1 249.1 171.7 249.1ZM173.7 275C173.7 276.1 172.8 276.9 171.6 276.9H148.3C147.2 276.9 146.3 276 146.2 275V253.2C146.2 252.1 147.1 251.3 148.3 251.3H149.7V252.4C149.7 253 150.2 253.5 150.8 253.5C151.4 253.5 151.9 253 151.9 252.4V251.3H158.8V252.4C158.8 253 159.3 253.5 159.9 253.5C160.5 253.5 161 253 161 252.4V251.3H167.9V252.4C167.9 253 168.4 253.5 169 253.5C169.6 253.5 170.1 253 170.1 252.4V251.3H171.5C172.6 251.3 173.5 252.2 173.6 253.2L173.7 275Z" fill="#6D86FF"/>
<path d="M155.8 258L153.2 260.4L151.7 259C151.3 258.6 150.5 258.6 150.1 259C149.6 259.4 149.6 260.1 150.1 260.5L152.4 262.6C152.8 263 153.6 263 154 262.6L157.4 259.4C157.8 259 157.8 258.3 157.4 257.9C156.9 257.6 156.2 257.6 155.8 258ZM169.1 259.8H161.1C160.5 259.8 160 260.3 160 260.9C160 261.5 160.5 262 161.1 262H169.1C169.7 262 170.2 261.5 170.2 260.9C170.2 260.3 169.8 259.8 169.1 259.8ZM155.8 267.6L153.2 270L151.7 268.6C151.3 268.2 150.5 268.2 150.1 268.6C149.6 269 149.6 269.7 150.1 270.1L152.4 272.2C152.8 272.6 153.6 272.6 154 272.2L157.4 269C157.8 268.6 157.8 267.9 157.4 267.5C156.9 267.2 156.2 267.2 155.8 267.6ZM169.1 269.4H161.1C160.5 269.4 160 269.9 160 270.5C160 271.1 160.5 271.6 161.1 271.6H169.1C169.7 271.6 170.2 271.1 170.2 270.5C170.3 269.9 169.8 269.4 169.1 269.4Z" fill="#6D86FF"/>
<path d="M249.7 249.1H248.3V248C248.3 247.4 247.8 246.9 247.2 246.9C246.6 246.9 246.1 247.4 246.1 248V249.1H239.2V248C239.2 247.4 238.7 246.9 238.1 246.9C237.5 246.9 237 247.4 237 248V249.1H230V248C230 247.4 229.5 246.9 228.9 246.9C228.3 246.9 227.8 247.4 227.8 248V249.1H226.4C224 249.1 222.1 250.9 222.1 253.1V275C222.1 277.2 224 279 226.4 279H249.7C252.1 279 254 277.2 254 275V253.2C254 250.9 252.1 249.1 249.7 249.1ZM251.7 275C251.7 276.1 250.8 276.9 249.6 276.9H226.3C225.2 276.9 224.3 276 224.2 275V253.2C224.2 252.1 225.1 251.3 226.3 251.3H227.7V252.4C227.7 253 228.2 253.5 228.8 253.5C229.4 253.5 229.9 253 229.9 252.4V251.3H236.8V252.4C236.8 253 237.3 253.5 237.9 253.5C238.5 253.5 239 253 239 252.4V251.3H245.9V252.4C245.9 253 246.4 253.5 247 253.5C247.6 253.5 248.1 253 248.1 252.4V251.3H249.5C250.6 251.3 251.5 252.2 251.6 253.2L251.7 275Z" fill="#6D86FF"/>
<path d="M233.8 258L231.2 260.4L229.7 259C229.3 258.6 228.5 258.6 228.1 259C227.6 259.4 227.6 260.1 228.1 260.5L230.4 262.6C230.8 263 231.6 263 232 262.6L235.4 259.4C235.8 259 235.8 258.3 235.4 257.9C234.9 257.6 234.2 257.6 233.8 258ZM247.1 259.8H239.1C238.5 259.8 238 260.3 238 260.9C238 261.5 238.5 262 239.1 262H247.1C247.7 262 248.2 261.5 248.2 260.9C248.2 260.3 247.8 259.8 247.1 259.8ZM233.8 267.6L231.2 270L229.7 268.6C229.3 268.2 228.5 268.2 228.1 268.6C227.6 269 227.6 269.7 228.1 270.1L230.4 272.2C230.8 272.6 231.6 272.6 232 272.2L235.4 269C235.8 268.6 235.8 267.9 235.4 267.5C234.9 267.2 234.2 267.2 233.8 267.6ZM247.1 269.4H239.1C238.5 269.4 238 269.9 238 270.5C238 271.1 238.5 271.6 239.1 271.6H247.1C247.7 271.6 248.2 271.1 248.2 270.5C248.3 269.9 247.8 269.4 247.1 269.4Z" fill="#6D86FF"/>
<path d="M327.7 249.1H326.3V248C326.3 247.4 325.8 246.9 325.2 246.9C324.6 246.9 324.1 247.4 324.1 248V249.1H317.2V248C317.2 247.4 316.7 246.9 316.1 246.9C315.5 246.9 315 247.4 315 248V249.1H308V248C308 247.4 307.5 246.9 306.9 246.9C306.3 246.9 305.8 247.4 305.8 248V249.1H304.4C302 249.1 300.1 250.9 300.1 253.1V275C300.1 277.2 302 279 304.4 279H327.7C330.1 279 332 277.2 332 275V253.2C332 250.9 330.1 249.1 327.7 249.1ZM329.7 275C329.7 276.1 328.8 276.9 327.6 276.9H304.3C303.2 276.9 302.3 276 302.2 275V253.2C302.2 252.1 303.1 251.3 304.3 251.3H305.7V252.4C305.7 253 306.2 253.5 306.8 253.5C307.4 253.5 307.9 253 307.9 252.4V251.3H314.8V252.4C314.8 253 315.3 253.5 315.9 253.5C316.5 253.5 317 253 317 252.4V251.3H323.9V252.4C323.9 253 324.4 253.5 325 253.5C325.6 253.5 326.1 253 326.1 252.4V251.3H327.5C328.6 251.3 329.5 252.2 329.6 253.2L329.7 275Z" fill="#6D86FF"/>
<path d="M311.8 258L309.2 260.4L307.7 259C307.3 258.6 306.5 258.6 306.1 259C305.6 259.4 305.6 260.1 306.1 260.5L308.4 262.6C308.8 263 309.6 263 310 262.6L313.4 259.4C313.8 259 313.8 258.3 313.4 257.9C312.9 257.6 312.2 257.6 311.8 258ZM325.1 259.8H317.1C316.5 259.8 316 260.3 316 260.9C316 261.5 316.5 262 317.1 262H325.1C325.7 262 326.2 261.5 326.2 260.9C326.2 260.3 325.8 259.8 325.1 259.8ZM311.8 267.6L309.2 270L307.7 268.6C307.3 268.2 306.5 268.2 306.1 268.6C305.6 269 305.6 269.7 306.1 270.1L308.4 272.2C308.8 272.6 309.6 272.6 310 272.2L313.4 269C313.8 268.6 313.8 267.9 313.4 267.5C312.9 267.2 312.2 267.2 311.8 267.6ZM325.1 269.4H317.1C316.5 269.4 316 269.9 316 270.5C316 271.1 316.5 271.6 317.1 271.6H325.1C325.7 271.6 326.2 271.1 326.2 270.5C326.3 269.9 325.8 269.4 325.1 269.4Z" fill="#6D86FF"/>
<path d="M405.7 249.1H404.3V248C404.3 247.4 403.8 246.9 403.2 246.9C402.6 246.9 402.1 247.4 402.1 248V249.1H395.2V248C395.2 247.4 394.7 246.9 394.1 246.9C393.5 246.9 393 247.4 393 248V249.1H386V248C386 247.4 385.5 246.9 384.9 246.9C384.3 246.9 383.8 247.4 383.8 248V249.1H382.4C380 249.1 378.1 250.9 378.1 253.1V275C378.1 277.2 380 279 382.4 279H405.7C408.1 279 410 277.2 410 275V253.2C410 250.9 408.1 249.1 405.7 249.1ZM407.7 275C407.7 276.1 406.8 276.9 405.6 276.9H382.3C381.2 276.9 380.3 276 380.2 275V253.2C380.2 252.1 381.1 251.3 382.3 251.3H383.7V252.4C383.7 253 384.2 253.5 384.8 253.5C385.4 253.5 385.9 253 385.9 252.4V251.3H392.8V252.4C392.8 253 393.3 253.5 393.9 253.5C394.5 253.5 395 253 395 252.4V251.3H401.9V252.4C401.9 253 402.4 253.5 403 253.5C403.6 253.5 404.1 253 404.1 252.4V251.3H405.5C406.6 251.3 407.5 252.2 407.6 253.2L407.7 275Z" fill="#6D86FF"/>
<path d="M389.8 258L387.2 260.4L385.7 259C385.3 258.6 384.5 258.6 384.1 259C383.6 259.4 383.6 260.1 384.1 260.5L386.4 262.6C386.8 263 387.6 263 388 262.6L391.4 259.4C391.8 259 391.8 258.3 391.4 257.9C390.9 257.6 390.2 257.6 389.8 258ZM403.1 259.8H395.1C394.5 259.8 394 260.3 394 260.9C394 261.5 394.5 262 395.1 262H403.1C403.7 262 404.2 261.5 404.2 260.9C404.2 260.3 403.8 259.8 403.1 259.8ZM389.8 267.6L387.2 270L385.7 268.6C385.3 268.2 384.5 268.2 384.1 268.6C383.6 269 383.6 269.7 384.1 270.1L386.4 272.2C386.8 272.6 387.6 272.6 388 272.2L391.4 269C391.8 268.6 391.8 267.9 391.4 267.5C390.9 267.2 390.2 267.2 389.8 267.6ZM403.1 269.4H395.1C394.5 269.4 394 269.9 394 270.5C394 271.1 394.5 271.6 395.1 271.6H403.1C403.7 271.6 404.2 271.1 404.2 270.5C404.3 269.9 403.8 269.4 403.1 269.4Z" fill="#6D86FF"/>
<path d="M483.7 249.1H482.3V248C482.3 247.4 481.8 246.9 481.2 246.9C480.6 246.9 480.1 247.4 480.1 248V249.1H473.2V248C473.2 247.4 472.7 246.9 472.1 246.9C471.5 246.9 471 247.4 471 248V249.1H464V248C464 247.4 463.5 246.9 462.9 246.9C462.3 246.9 461.8 247.4 461.8 248V249.1H460.4C458 249.1 456.1 250.9 456.1 253.1V275C456.1 277.2 458 279 460.4 279H483.7C486.1 279 488 277.2 488 275V253.2C488 250.9 486.1 249.1 483.7 249.1ZM485.7 275C485.7 276.1 484.8 276.9 483.6 276.9H460.3C459.2 276.9 458.3 276 458.2 275V253.2C458.2 252.1 459.1 251.3 460.3 251.3H461.7V252.4C461.7 253 462.2 253.5 462.8 253.5C463.4 253.5 463.9 253 463.9 252.4V251.3H470.8V252.4C470.8 253 471.3 253.5 471.9 253.5C472.5 253.5 473 253 473 252.4V251.3H479.9V252.4C479.9 253 480.4 253.5 481 253.5C481.6 253.5 482.1 253 482.1 252.4V251.3H483.5C484.6 251.3 485.5 252.2 485.6 253.2L485.7 275Z" fill="#6D86FF"/>
<path d="M467.8 258L465.2 260.4L463.7 259C463.3 258.6 462.5 258.6 462.1 259C461.6 259.4 461.6 260.1 462.1 260.5L464.4 262.6C464.8 263 465.6 263 466 262.6L469.4 259.4C469.8 259 469.8 258.3 469.4 257.9C468.9 257.6 468.2 257.6 467.8 258ZM481.1 259.8H473.1C472.5 259.8 472 260.3 472 260.9C472 261.5 472.5 262 473.1 262H481.1C481.7 262 482.2 261.5 482.2 260.9C482.2 260.3 481.8 259.8 481.1 259.8ZM467.8 267.6L465.2 270L463.7 268.6C463.3 268.2 462.5 268.2 462.1 268.6C461.6 269 461.6 269.7 462.1 270.1L464.4 272.2C464.8 272.6 465.6 272.6 466 272.2L469.4 269C469.8 268.6 469.8 267.9 469.4 267.5C468.9 267.2 468.2 267.2 467.8 267.6ZM481.1 269.4H473.1C472.5 269.4 472 269.9 472 270.5C472 271.1 472.5 271.6 473.1 271.6H481.1C481.7 271.6 482.2 271.1 482.2 270.5C482.3 269.9 481.8 269.4 481.1 269.4Z" fill="#6D86FF"/>
<path d="M561.7 249.1H560.3V248C560.3 247.4 559.8 246.9 559.2 246.9C558.6 246.9 558.1 247.4 558.1 248V249.1H551.2V248C551.2 247.4 550.7 246.9 550.1 246.9C549.5 246.9 549 247.4 549 248V249.1H542V248C542 247.4 541.5 246.9 540.9 246.9C540.3 246.9 539.8 247.4 539.8 248V249.1H538.4C536 249.1 534.1 250.9 534.1 253.1V275C534.1 277.2 536 279 538.4 279H561.7C564.1 279 566 277.2 566 275V253.2C566 250.9 564.1 249.1 561.7 249.1ZM563.7 275C563.7 276.1 562.8 276.9 561.6 276.9H538.3C537.2 276.9 536.3 276 536.2 275V253.2C536.2 252.1 537.1 251.3 538.3 251.3H539.7V252.4C539.7 253 540.2 253.5 540.8 253.5C541.4 253.5 541.9 253 541.9 252.4V251.3H548.8V252.4C548.8 253 549.3 253.5 549.9 253.5C550.5 253.5 551 253 551 252.4V251.3H557.9V252.4C557.9 253 558.4 253.5 559 253.5C559.6 253.5 560.1 253 560.1 252.4V251.3H561.5C562.6 251.3 563.5 252.2 563.6 253.2V275H563.7Z" fill="#6D86FF"/>
<path d="M545.8 258L543.2 260.4L541.7 259C541.3 258.6 540.5 258.6 540.1 259C539.6 259.4 539.6 260.1 540.1 260.5L542.4 262.6C542.8 263 543.6 263 544 262.6L547.4 259.4C547.8 259 547.8 258.3 547.4 257.9C546.9 257.6 546.2 257.6 545.8 258ZM559.1 259.8H551.1C550.5 259.8 550 260.3 550 260.9C550 261.5 550.5 262 551.1 262H559.1C559.7 262 560.2 261.5 560.2 260.9C560.2 260.3 559.8 259.8 559.1 259.8ZM545.8 267.6L543.2 270L541.7 268.6C541.3 268.2 540.5 268.2 540.1 268.6C539.6 269 539.6 269.7 540.1 270.1L542.4 272.2C542.8 272.6 543.6 272.6 544 272.2L547.4 269C547.8 268.6 547.8 267.9 547.4 267.5C546.9 267.2 546.2 267.2 545.8 267.6ZM559.1 269.4H551.1C550.5 269.4 550 269.9 550 270.5C550 271.1 550.5 271.6 551.1 271.6H559.1C559.7 271.6 560.2 271.1 560.2 270.5C560.3 269.9 559.8 269.4 559.1 269.4Z" fill="#6D86FF"/>
<path d="M51.8 66.3C51.6 62.8 48.6 60 44.9 60C41.1 60 38 63 38 66.7C38 70.5 41.2 75.1 44.9 75.1C47.1 75.1 49.1 73.5 50.4 71.3H51.3C52.2 71.3 53 70.5 53 69.6V68C53.1 67.2 52.5 66.5 51.8 66.3ZM49.9 70.5H46.6V70.1H45.7V71.8H46.6V71.4H49.4C48.3 73.1 46.7 74.3 44.9 74.3C41.7 74.3 38.9 70.1 38.9 66.8C38.9 63.6 41.6 60.9 44.9 60.9C48.2 60.9 50.9 63.5 50.9 66.8C50.9 68 50.5 69.3 49.9 70.5ZM52.2 69.6C52.2 70.1 51.8 70.4 51.3 70.4H50.8C51.3 69.4 51.6 68.2 51.7 67.2C52 67.3 52.2 67.6 52.2 67.9V69.6Z" fill="#1DD1A1"/>
<path d="M50.1 73.7L49.8 73.6L49.6 73.8C48.6 74.8 47 75.9 45 75.9C42.9 75.9 41.4 74.7 40.4 73.8L40.2 73.6L39.9 73.7C35.7 75.6 33 79.8 33 84.3V86H57V84.3C56.9 79.8 54.2 75.6 50.1 73.7ZM56.1 85.2H33.8V84.4C33.8 80.3 36.2 76.5 39.9 74.7C41.4 76.1 43.2 76.9 44.9 76.9C46.7 76.9 48.4 76.1 49.9 74.7C53.6 76.5 56 80.3 56 84.4L56.1 85.2Z" fill="#1DD1A1"/>
<path d="M44.5 78.9H45.4V79.7H44.5V78.9ZM44.5 80.5H45.4V81.3H44.5V80.5ZM44.5 82.2H45.4V83H44.5V82.2Z" fill="#1DD1A1"/>
<path d="M45 51C57.1 51 67 60.9 67 73C67 85.1 57.1 95 45 95C32.9 95 23 85.1 23 73C23 60.9 32.9 51 45 51ZM45 50C32.3 50 22 60.3 22 73C22 85.7 32.3 96 45 96C57.7 96 68 85.7 68 73C68 60.3 57.7 50 45 50Z" fill="#1DD1A1"/>
<path d="M43.7 256.5H32V264.6H34.6L34.1 266.4H41.6L41.1 264.6H43.7V256.5ZM35.3 265.5L35.5 264.6H40.2L40.4 265.5H35.3ZM42.8 263.7H32.9V257.4H42.8V263.7ZM60 263.3V257H50.1V263.3H52.4V264.2H51.9V265.1H58.2V264.2H57.7V263.3H60ZM56.8 264.2H53.2V263.3H56.8V264.2ZM51 262.4V257.9H59.1V262.4H51ZM60 273.2V266.9H50.1V273.2H52.4V274.1H51.9V275H58.2V274.1H57.7V273.2H60ZM56.8 274.1H53.2V273.2H56.8V274.1ZM51 272.3V267.8H59.1V272.3H51ZM60 253.3V247H50.1V253.3H52.4V254.2H51.9V255.1H58.2V254.2H57.7V253.3H60ZM56.8 254.2H53.2V253.3H56.8V254.2ZM51 252.4V247.9H59.1V252.4H51ZM49.6 250.6V249.7H46.4V260.1H44.1V261H46.4V270.5H49.6V269.6H47.3V261H49.6V260.1H47.3V250.6H49.6Z" fill="#6D86FF"/>
<path d="M46 239C58.1 239 68 248.9 68 261C68 273.1 58.1 283 46 283C33.9 283 24 273.1 24 261C24 248.9 33.9 239 46 239ZM46 238C33.3 238 23 248.3 23 261C23 273.7 33.3 284 46 284C58.7 284 69 273.7 69 261C69 248.3 58.7 238 46 238Z" fill="#6D86FF"/>
<path d="M57.7 164.8C58.6 164.2 59.3 163.1 59.3 161.9C59.3 159.9 57.7 158.3 55.6 158.3C53.5 158.3 51.9 159.9 51.9 161.9C51.9 163.1 52.5 164.2 53.5 164.8C52.7 165.1 52 165.5 51.3 166C50.4 165.3 49.4 164.7 48.3 164.4C49.6 163.6 50.5 162.2 50.5 160.5C50.5 158 48.4 155.9 45.9 155.9C43.3 155.9 41.3 157.9 41.3 160.5C41.3 162.2 42.2 163.6 43.5 164.4C42.4 164.7 41.4 165.3 40.6 166C40 165.5 39.3 165 38.5 164.8C39.4 164.2 40.1 163.1 40.1 161.9C40.1 159.9 38.5 158.3 36.4 158.3C34.3 158.3 32.7 159.9 32.7 161.9C32.7 163.1 33.3 164.2 34.3 164.8C31.8 165.7 30 168 30 170.8V171.2H37.7C37.7 171.5 37.6 171.9 37.6 172.3V172.7C37.6 174.5 39.1 176 41 176H50.8C52.7 176 54.2 174.5 54.2 172.7V172.3C54.2 171.9 54.2 171.6 54.1 171.2H62V170.8C62 168 60.2 165.7 57.7 164.8ZM52.9 161.9C52.9 160.5 54.1 159.3 55.5 159.3C56.9 159.3 58.1 160.5 58.1 161.9C58.1 163.3 56.9 164.5 55.5 164.5H55.4C54.1 164.4 52.9 163.3 52.9 161.9ZM42.3 160.6C42.3 158.6 43.9 157 45.9 157C47.9 157 49.5 158.6 49.5 160.6C49.5 162.5 48 164 46.1 164.2H45.7C43.9 164 42.3 162.5 42.3 160.6ZM33.8 161.9C33.8 160.5 35 159.3 36.4 159.3C37.8 159.3 39 160.5 39 161.9C39 163.3 37.8 164.5 36.4 164.5H36.3C34.9 164.4 33.8 163.3 33.8 161.9ZM37.9 170.2H31C31.3 167.5 33.6 165.5 36.3 165.4H36.4C37.7 165.4 38.9 165.9 39.9 166.7C39 167.7 38.3 168.9 37.9 170.2ZM53.2 172.7C53.2 174 52.1 175 50.8 175H41C39.7 175 38.6 174 38.6 172.7V172.3C38.6 168.4 41.7 165.3 45.6 165.2C45.7 165.2 45.7 165.2 45.8 165.2C45.9 165.2 45.9 165.2 46 165.2C49.9 165.3 53 168.5 53 172.3V172.7H53.2ZM54 170.2C53.7 168.9 53 167.7 52.1 166.7C53 165.9 54.3 165.4 55.6 165.4H55.7C58.5 165.4 60.7 167.5 61 170.2H54Z" fill="#FB6848"/>
<path d="M46 144C58.1 144 68 153.9 68 166C68 178.1 58.1 188 46 188C33.9 188 24 178.1 24 166C24 153.9 33.9 144 46 144ZM46 143C33.3 143 23 153.3 23 166C23 178.7 33.3 189 46 189C58.7 189 69 178.7 69 166C69 153.3 58.7 143 46 143Z" fill="#FB6848"/>
</svg>
