<svg width="24" height="24" viewBox="0 0 24 24" fill="none" xmlns="http://www.w3.org/2000/svg">
<path fill-rule="evenodd" clip-rule="evenodd" d="M1.28564 3.00305C1.28564 2.5476 1.46657 2.1108 1.78863 1.78875C2.11068 1.46669 2.54748 1.28577 3.00293 1.28577H20.9969C21.4524 1.28577 21.8892 1.46669 22.2112 1.78875C22.5333 2.1108 22.7142 2.5476 22.7142 3.00305V20.9971C22.7142 21.4525 22.5333 21.8893 22.2112 22.2114C21.8892 22.5334 21.4524 22.7143 20.9969 22.7143H3.00293C2.54748 22.7143 2.11068 22.5334 1.78863 22.2114C1.46657 21.8893 1.28564 21.4525 1.28564 20.9971V3.00305ZM15.9771 21.8572V13.6466H18.7568L19.1729 10.4469H15.9771V8.40391C15.9771 7.47734 16.2364 6.84605 17.5765 6.84605L19.2856 6.8452V3.9832C18.9899 3.94462 17.9755 3.8572 16.7952 3.8572C14.3309 3.8572 12.6441 5.34862 12.6441 8.0872V10.4469H9.85707V13.6466H12.6441V21.8572H15.9771Z" fill="#1DAD8F"/>
</svg>
