<svg width="24" height="24" viewBox="0 0 24 24" fill="none" xmlns="http://www.w3.org/2000/svg">
<path fill-rule="evenodd" clip-rule="evenodd" d="M5.81166 1.34912C4.62803 1.34912 3.49285 1.8192 2.65574 2.65599C1.81862 3.49278 1.34811 4.62778 1.34766 5.81141V17.7154C1.34766 18.8993 1.81797 20.0348 2.65513 20.8719C3.49229 21.7091 4.62773 22.1794 5.81166 22.1794H17.7157C18.8993 22.179 20.0343 21.7084 20.8711 20.8713C21.7079 20.0342 22.1779 18.899 22.1779 17.7154V5.81141C22.1775 4.62807 21.7072 3.49334 20.8705 2.6566C20.0337 1.81985 18.899 1.34958 17.7157 1.34912H5.81166ZM18.9997 5.81826C18.9997 6.15926 18.8642 6.48628 18.6231 6.7274C18.382 6.96852 18.0549 7.10398 17.7139 7.10398C17.3729 7.10398 17.0459 6.96852 16.8048 6.7274C16.5637 6.48628 16.4282 6.15926 16.4282 5.81826C16.4282 5.47727 16.5637 5.15024 16.8048 4.90913C17.0459 4.66801 17.3729 4.53255 17.7139 4.53255C18.0549 4.53255 18.382 4.66801 18.6231 4.90913C18.8642 5.15024 18.9997 5.47727 18.9997 5.81826ZM11.7654 8.19769C10.8197 8.19769 9.91273 8.57336 9.24403 9.24207C8.57533 9.91077 8.19966 10.8177 8.19966 11.7634C8.19966 12.7091 8.57533 13.616 9.24403 14.2847C9.91273 14.9534 10.8197 15.3291 11.7654 15.3291C12.7111 15.3291 13.618 14.9534 14.2867 14.2847C14.9554 13.616 15.3311 12.7091 15.3311 11.7634C15.3311 10.8177 14.9554 9.91077 14.2867 9.24207C13.618 8.57336 12.7111 8.19769 11.7654 8.19769ZM6.48366 11.7634C6.48366 10.3631 7.03994 9.02008 8.03013 8.02988C9.02032 7.03969 10.3633 6.48341 11.7637 6.48341C13.164 6.48341 14.507 7.03969 15.4972 8.02988C16.4874 9.02008 17.0437 10.3631 17.0437 11.7634C17.0437 13.1637 16.4874 14.5067 15.4972 15.4969C14.507 16.4871 13.164 17.0434 11.7637 17.0434C10.3633 17.0434 9.02032 16.4871 8.03013 15.4969C7.03994 14.5067 6.48366 13.1637 6.48366 11.7634Z" fill="#1DAD8F"/>
</svg>
