<svg width="48" height="48" viewBox="0 0 48 48" fill="none" xmlns="http://www.w3.org/2000/svg">
<path d="M18 42H30M18 42V32M18 42H7.2C6.88174 42 6.57652 41.8736 6.35147 41.6485C6.12643 41.4235 6 41.1183 6 40.8V33.2C6 32.8817 6.12643 32.5765 6.35147 32.3515C6.57652 32.1264 6.88174 32 7.2 32H18M30 42V18M30 42H40.8C41.1183 42 41.4235 41.8736 41.6485 41.6485C41.8736 41.4235 42 41.1183 42 40.8V7.2C42 6.88174 41.8736 6.57652 41.6485 6.35147C41.4235 6.12643 41.1183 6 40.8 6H31.2C30.8817 6 30.5765 6.12643 30.3515 6.35147C30.1264 6.57652 30 6.88174 30 7.2V18M30 18H19.2C18.8817 18 18.5765 18.1264 18.3515 18.3515C18.1264 18.5765 18 18.8817 18 19.2V32" stroke="#1DAD8F" stroke-width="3"/>
</svg>
