<svg width="48" height="48" viewBox="0 0 48 48" fill="none" xmlns="http://www.w3.org/2000/svg">
<path d="M17.0312 25.75V8.75C17.0312 7.95435 17.3325 7.19129 17.8687 6.62868C18.405 6.06607 19.1323 5.75 19.8906 5.75C20.649 5.75 21.3763 6.06607 21.9125 6.62868C22.4487 7.19129 22.75 7.95435 22.75 8.75V23.75M22.75 22.75V18.75C22.75 17.9544 23.0513 17.1913 23.5875 16.6287C24.1237 16.0661 24.851 15.75 25.6094 15.75C26.3677 15.75 27.095 16.0661 27.6313 16.6287C28.1675 17.1913 28.4687 17.9544 28.4688 18.75V23.75M28.4688 20.75C28.4688 19.9544 28.77 19.1913 29.3062 18.6287C29.8425 18.0661 30.5698 17.75 31.3281 17.75C32.0865 17.75 32.8138 18.0661 33.35 18.6287C33.8862 19.1913 34.1875 19.9544 34.1875 20.75V23.75" stroke="#1DAD8F" stroke-width="3" stroke-linecap="round" stroke-linejoin="round"/>
<path d="M34.1875 22.75C34.1875 21.9544 34.4888 21.1913 35.025 20.6287C35.5612 20.0661 36.2885 19.75 37.0469 19.75C37.8052 19.75 38.5325 20.0661 39.0688 20.6287C39.605 21.1913 39.9063 21.9544 39.9063 22.75V31.75C39.9063 34.9326 38.7012 37.9848 36.5563 40.2353C34.4113 42.4857 31.5022 43.75 28.4688 43.75H24.6563H25.0528C23.1586 43.7503 21.294 43.2571 19.6264 42.3146C17.9588 41.372 16.5404 40.0097 15.4986 38.35L15.125 37.75C14.5303 36.792 12.4429 32.974 8.86106 26.294C8.49592 25.6131 8.39838 24.8095 8.5892 24.0543C8.78001 23.2991 9.24412 22.6518 9.88281 22.25C10.5631 21.8217 11.3603 21.6442 12.1477 21.7457C12.9352 21.8472 13.6677 22.2218 14.2291 22.81L17.0313 25.75M11.3125 5.75L9.40625 3.75M9.40625 13.75H7.5M28.4688 5.75L30.375 3.75M30.375 11.75H32.2813" stroke="#1DAD8F" stroke-width="3" stroke-linecap="round" stroke-linejoin="round"/>
</svg>
