<svg width="48" height="48" viewBox="0 0 48 48" fill="none" xmlns="http://www.w3.org/2000/svg">
<path d="M31.6931 29.2062C32.1175 31.0022 32.1301 32.871 31.7297 34.6725C31.3293 36.4741 30.5265 38.1617 29.3813 39.6089C28.2361 41.0561 26.7782 42.2254 25.1169 43.0291C23.4556 43.8329 21.634 44.2503 19.7885 44.25V34.4654M31.6931 29.2062C35.5863 26.3702 38.7534 22.6535 40.9358 18.3597C43.1181 14.0658 44.2538 9.31662 44.25 4.50001C39.4337 4.49653 34.6849 5.63234 30.3915 7.81468C26.098 9.99702 22.3816 13.164 19.5459 17.0569M31.6931 29.2062C28.15 31.7976 24.0903 33.5917 19.7885 34.4654M19.7885 34.4654C19.5776 34.5083 19.3662 34.5491 19.1545 34.5877C17.3052 33.1213 15.6308 31.4469 14.1643 29.5975C14.2029 29.3851 14.2416 29.1731 14.2846 28.9615M19.5459 17.0569C17.7497 16.6321 15.8807 16.6193 14.0789 17.0195C12.277 17.4197 10.5892 18.2225 9.14172 19.3678C7.69428 20.513 6.5248 21.971 5.72093 23.6325C4.91707 25.2939 4.49966 27.1158 4.5 28.9615H14.2846M19.5459 17.0569C16.9548 20.5994 15.1586 24.6605 14.2846 28.9615M9.7205 33.8335C8.37956 34.8306 7.33698 36.1756 6.70567 37.7228C6.07435 39.27 5.87836 40.9605 6.13892 42.6111C7.78972 42.8714 9.48029 42.6751 11.0275 42.0434C12.5747 41.4118 13.9196 40.3688 14.9165 39.0275M33.5481 18.2596C33.5481 19.0706 33.2259 19.8483 32.6525 20.4217C32.0791 20.9952 31.3013 21.3173 30.4904 21.3173C29.6794 21.3173 28.9017 20.9952 28.3283 20.4217C27.7548 19.8483 27.4327 19.0706 27.4327 18.2596C27.4327 17.4487 27.7548 16.6709 28.3283 16.0975C28.9017 15.5241 29.6794 15.2019 30.4904 15.2019C31.3013 15.2019 32.0791 15.5241 32.6525 16.0975C33.2259 16.6709 33.5481 17.4487 33.5481 18.2596Z" stroke="#1DAD8F" stroke-width="3" stroke-linecap="round" stroke-linejoin="round"/>
</svg>
