<svg width="48" height="48" viewBox="0 0 48 48" fill="none" xmlns="http://www.w3.org/2000/svg">
<path d="M23.625 41.7656C19.0127 41.7656 14.5893 39.9334 11.328 36.672C8.0666 33.4107 6.23438 28.9873 6.23438 24.375C6.23438 19.7627 8.0666 15.3393 11.328 12.078C14.5893 8.8166 19.0127 6.98438 23.625 6.98438C28.2373 6.98438 32.6607 8.8166 35.922 12.078C39.1834 15.3393 41.0156 19.7627 41.0156 24.375C41.0156 28.9873 39.1834 33.4107 35.922 36.672C32.6607 39.9334 28.2373 41.7656 23.625 41.7656ZM23.625 44.25C28.8962 44.25 33.9515 42.156 37.6787 38.4287C41.406 34.7015 43.5 29.6462 43.5 24.375C43.5 19.1038 41.406 14.0485 37.6787 10.3213C33.9515 6.59397 28.8962 4.5 23.625 4.5C18.3538 4.5 13.2985 6.59397 9.57125 10.3213C5.84397 14.0485 3.75 19.1038 3.75 24.375C3.75 29.6462 5.84397 34.7015 9.57125 38.4287C13.2985 42.156 18.3538 44.25 23.625 44.25V44.25Z" fill="#1DAD8F"/>
<path d="M14.3945 28.268C14.6798 28.1033 15.0189 28.0587 15.3371 28.1439C15.6553 28.2292 15.9266 28.4374 16.0913 28.7227C16.8543 30.0452 17.9523 31.1434 19.2746 31.9066C20.597 32.6698 22.0971 33.0712 23.6239 33.0703C25.1508 33.0712 26.6509 32.6698 27.9733 31.9066C29.2956 31.1434 30.3936 30.0452 31.1566 28.7227C31.2375 28.5802 31.3459 28.4553 31.4754 28.3549C31.6048 28.2545 31.7529 28.1807 31.911 28.1378C32.0691 28.0949 32.2341 28.0837 32.3965 28.1048C32.559 28.1259 32.7157 28.1789 32.8575 28.2609C32.9994 28.3428 33.1237 28.4519 33.2232 28.5821C33.3227 28.7122 33.3955 28.8607 33.4374 29.0191C33.4792 29.1775 33.4894 29.3426 33.4672 29.5049C33.445 29.6672 33.3909 29.8235 33.308 29.9648C32.327 31.665 30.9155 33.0768 29.2154 34.0581C27.5154 35.0394 25.5869 35.5556 23.6239 35.5547C21.661 35.5556 19.7325 35.0394 18.0325 34.0581C16.3324 33.0768 14.9209 31.665 13.9399 29.9648C13.7751 29.6795 13.7305 29.3405 13.8158 29.0223C13.901 28.7041 14.1092 28.4327 14.3945 28.268ZM21.1396 20.6484C21.1396 22.7055 20.0266 24.375 18.6552 24.375C17.2838 24.375 16.1708 22.7055 16.1708 20.6484C16.1708 18.5914 17.2838 16.9219 18.6552 16.9219C20.0266 16.9219 21.1396 18.5914 21.1396 20.6484ZM31.0771 20.6484C31.0771 22.7055 29.9641 24.375 28.5927 24.375C27.2213 24.375 26.1083 22.7055 26.1083 20.6484C26.1083 18.5914 27.2213 16.9219 28.5927 16.9219C29.9641 16.9219 31.0771 18.5914 31.0771 20.6484Z" fill="#1DAD8F"/>
</svg>
