<svg width="61" height="54" viewBox="0 0 61 54" fill="none" xmlns="http://www.w3.org/2000/svg">
<path d="M40.0004 43.7056C35.8469 43.7057 31.7868 42.4448 28.3333 40.0825C24.8798 37.7201 22.1882 34.3623 20.5987 30.4338C19.0092 26.5052 18.5932 22.1823 19.4035 18.0117C20.2137 13.8412 22.2137 10.0102 25.1506 7.0034C28.0874 3.99656 31.8293 1.94885 35.9029 1.11923C39.9765 0.289602 44.1989 0.715321 48.0361 2.34255C51.8734 3.96978 55.1532 6.72543 57.4608 10.261C59.7683 13.7966 61 17.9534 61 22.2057C60.9938 27.9058 58.7794 33.3706 54.8425 37.4012C50.9057 41.4319 45.568 43.6991 40.0004 43.7056ZM40.0004 8.11608C37.2784 8.11601 34.6176 8.9423 32.3544 10.4905C30.0911 12.0386 28.3271 14.2391 27.2854 16.8137C26.2438 19.3883 25.9712 22.2213 26.5022 24.9545C27.0332 27.6876 28.3439 30.1982 30.2686 32.1688C32.1933 34.1393 34.6455 35.4812 37.3151 36.0249C39.9847 36.5685 42.7519 36.2895 45.2666 35.2231C47.7814 34.1566 49.9307 32.3507 51.4429 30.0336C52.9552 27.7165 53.7623 24.9924 53.7622 22.2057C53.7581 18.4702 52.3068 14.889 49.7269 12.2476C47.1469 9.60622 43.649 8.1204 40.0004 8.11608Z" fill="#1DAD8F"/>
<path d="M9.50016 53.9434C7.62124 53.9434 5.7845 53.373 4.22221 52.3043C2.65993 51.2357 1.44226 49.7167 0.723203 47.9395C0.0041432 46.1623 -0.184016 44.2067 0.182518 42.32C0.549053 40.4333 1.45382 38.7002 2.7824 37.34C4.11099 35.9798 5.80372 35.0534 7.64654 34.6781C9.48935 34.3028 11.3995 34.4954 13.1354 35.2315C14.8713 35.9677 16.355 37.2143 17.3989 38.8137C18.4428 40.4131 19 42.2936 19 44.2172C18.9972 46.7958 17.9954 49.268 16.2145 51.0914C14.4335 52.9148 12.0188 53.9405 9.50016 53.9434ZM9.50016 37.8434C8.26881 37.8433 7.0651 38.2171 6.04126 38.9175C5.01741 39.6179 4.21941 40.6133 3.74818 41.778C3.27694 42.9427 3.15363 44.2243 3.39384 45.4607C3.63405 46.6972 4.227 47.8329 5.09769 48.7243C5.96838 49.6158 7.07771 50.2228 8.28541 50.4688C9.4931 50.7147 10.7449 50.5885 11.8825 50.1061C13.0201 49.6236 13.9925 48.8066 14.6766 47.7584C15.3607 46.7102 15.7258 45.4779 15.7258 44.2172C15.7239 42.5274 15.0674 40.9073 13.9003 39.7124C12.7331 38.5175 11.1507 37.8453 9.50016 37.8434Z" fill="#1DAD8F"/>
</svg>
