<svg width="66" height="66" viewBox="0 0 66 66" fill="none" xmlns="http://www.w3.org/2000/svg">
<path d="M0.00477077 33.496C-0.106077 26.9829 1.71691 20.5832 5.2432 15.1062C8.76948 9.62913 13.8407 5.32079 19.8155 2.72594C25.7904 0.131086 32.4005 -0.633723 38.81 0.528223C45.2195 1.69017 51.1405 4.72668 55.8243 9.25378C60.5081 13.7809 63.7442 19.5952 65.1235 25.9615C66.5028 32.3279 65.9634 38.9603 63.5733 45.02C61.1832 51.0797 57.0499 56.2946 51.6961 60.0052C46.3423 63.7158 40.0084 65.7555 33.4953 65.8662C24.7645 66.0049 16.3353 62.6747 10.0567 56.6062C3.77822 50.5377 0.163205 42.2265 0.00477077 33.496ZM54.516 32.5693C54.4434 28.3009 53.1068 24.15 50.6751 20.6413C48.2434 17.1326 44.8259 14.4239 40.8548 12.8575C36.8836 11.2911 32.5372 10.9375 28.365 11.8414C24.1929 12.7453 20.3825 14.8661 17.4157 17.9356C14.4489 21.0051 12.459 24.8854 11.6975 29.0859C10.936 33.2864 11.4372 37.6184 13.1376 41.534C14.8381 45.4496 17.6615 48.7731 21.2508 51.0841C24.8401 53.395 29.0341 54.5898 33.3024 54.5171C39.0238 54.4132 44.4703 52.0441 48.4472 47.9295C52.424 43.815 54.6068 38.2909 54.516 32.5693Z" fill="#FFA600"/>
</svg>
