<svg width="35" height="35" viewBox="0 0 35 35" fill="none" xmlns="http://www.w3.org/2000/svg">
<path d="M17.5003 35C14.0391 35.0001 10.6557 33.9738 7.77776 32.0509C4.89986 30.128 2.6568 27.3949 1.33222 24.1972C0.00763222 20.9995 -0.338977 17.4808 0.336218 14.0862C1.01141 10.6915 2.67809 7.57325 5.12548 5.1258C7.57287 2.67834 10.6911 1.01159 14.0857 0.336305C17.4804 -0.338977 20.9991 0.00754281 24.1968 1.33204C27.3945 2.65655 30.1277 4.89954 32.0506 7.77739C33.9736 10.6552 35 14.0387 35 17.4999C34.9948 22.1395 33.1495 26.5877 29.8688 29.8685C26.5881 33.1492 22.14 34.9947 17.5003 35ZM17.5003 6.03148C15.232 6.03142 13.0147 6.70399 11.1286 7.96414C9.2426 9.22429 7.7726 11.0154 6.90454 13.111C6.03647 15.2066 5.80932 17.5126 6.25182 19.7373C6.69431 21.962 7.78657 24.0055 9.39048 25.6094C10.9944 27.2133 13.0379 28.3056 15.2626 28.7482C17.4873 29.1907 19.7932 28.9636 21.8889 28.0955C23.9845 27.2275 25.7756 25.7575 27.0358 23.8715C28.296 21.9855 28.9686 19.7681 28.9685 17.4999C28.9651 14.4593 27.7557 11.5444 25.6057 9.39437C23.4558 7.24439 20.5408 6.03499 17.5003 6.03148Z" fill="#1DAD8F"/>
</svg>
