<svg width="33" height="33" viewBox="0 0 33 33" fill="none" xmlns="http://www.w3.org/2000/svg">
<path d="M0.00239008 16.7809C-0.0531427 13.518 0.860144 10.3118 2.62676 7.56794C4.39337 4.82404 6.93397 2.66563 9.92727 1.36565C12.9206 0.065672 16.2321 -0.317485 19.4432 0.264631C22.6543 0.846748 25.6206 2.36799 27.9671 4.63599C30.3136 6.90399 31.9348 9.81688 32.6259 13.0063C33.3169 16.1957 33.0466 19.5185 31.8492 22.5543C30.6518 25.5901 28.5811 28.2027 25.8989 30.0616C23.2167 31.9206 20.0435 32.9424 16.7806 32.9979C12.4066 33.0674 8.1837 31.399 5.03827 28.3588C1.89283 25.3186 0.0817632 21.1548 0.00239008 16.7809ZM27.3116 16.3167C27.2753 14.1783 26.6056 12.0987 25.3874 10.341C24.1692 8.58318 22.4571 7.22612 20.4676 6.44139C18.4781 5.65667 16.3006 5.47953 14.2104 5.93236C12.1203 6.3852 10.2113 7.44769 8.72501 8.98545C7.23869 10.5232 6.24174 12.4672 5.86024 14.5716C5.47875 16.6759 5.72983 18.8462 6.58175 20.8079C7.43366 22.7695 8.84815 24.4345 10.6463 25.5923C12.4445 26.75 14.5456 27.3486 16.684 27.3122C19.5503 27.2601 22.2789 26.0732 24.2712 24.0119C26.2636 21.9506 27.3571 19.1831 27.3116 16.3167Z" fill="#FFA600"/>
</svg>
