<svg width="48" height="48" viewBox="0 0 48 48" fill="none" xmlns="http://www.w3.org/2000/svg">
<circle cx="24" cy="24" r="24" fill="#18AE8E"/>
<g clip-path="url(#clip0_711_83)">
<mask id="mask0_711_83" style="mask-type:luminance" maskUnits="userSpaceOnUse" x="12" y="12" width="24" height="24">
<path d="M36 12H12V36H36V12Z" fill="white"/>
</mask>
<g mask="url(#mask0_711_83)">
<path d="M19.3531 14.2969C19.8156 14.7969 19.8464 15.3281 19.4456 15.8906L16.1161 19.6406C15.9003 19.8906 15.6383 20.0156 15.33 20.0156C14.9909 20.0156 14.7134 19.9063 14.4976 19.6875L12.6479 17.8125C12.2163 17.2813 12.2163 16.75 12.6479 16.2187C13.172 15.7813 13.6961 15.7813 14.2202 16.2187L15.2375 17.25L17.7809 14.3906C18.2741 13.9219 18.7982 13.8906 19.3531 14.2969ZM19.3531 21.7969C19.8156 22.2969 19.8464 22.8281 19.4456 23.3906L16.1161 27.1406C15.9003 27.3906 15.6383 27.5156 15.33 27.5156C14.9909 27.5156 14.7134 27.4063 14.4976 27.1875L12.6479 25.3125C12.2163 24.7813 12.2163 24.25 12.6479 23.7187C13.172 23.2813 13.6961 23.2813 14.2202 23.7187L15.2375 24.75L17.7809 21.8906C18.2741 21.4219 18.7982 21.3906 19.3531 21.7969ZM22.6826 17.0156C22.6826 16.5781 22.8213 16.2188 23.0988 15.9375C23.3762 15.6563 23.7308 15.5156 24.1624 15.5156H34.5208C34.9524 15.5156 35.3069 15.6563 35.5843 15.9375C35.8618 16.2188 36.0005 16.5781 36.0005 17.0156C36.0005 17.4531 35.8618 17.8125 35.5843 18.0937C35.3069 18.375 34.9524 18.5156 34.5208 18.5156H24.1624C23.7308 18.5156 23.3762 18.375 23.0988 18.0937C22.8213 17.8125 22.6826 17.4531 22.6826 17.0156ZM22.6826 24.5156C22.6826 24.0781 22.8213 23.7188 23.0988 23.4375C23.3762 23.1563 23.7308 23.0156 24.1624 23.0156H34.5208C34.9524 23.0156 35.3069 23.1563 35.5843 23.4375C35.8618 23.7188 36.0005 24.0781 36.0005 24.5156C36.0005 24.9531 35.8618 25.3125 35.5843 25.5937C35.3069 25.875 34.9524 26.0156 34.5208 26.0156H24.1624C23.7308 26.0156 23.3762 25.875 23.0988 25.5937C22.8213 25.3125 22.6826 24.9531 22.6826 24.5156ZM19.7231 32.0156C19.7231 31.5781 19.8618 31.2188 20.1393 30.9375C20.4167 30.6562 20.7712 30.5156 21.2028 30.5156H34.5208C34.9524 30.5156 35.3069 30.6562 35.5843 30.9375C35.8618 31.2188 36.0005 31.5781 36.0005 32.0156C36.0005 32.4531 35.8618 32.8125 35.5843 33.0938C35.3069 33.375 34.9524 33.5156 34.5208 33.5156H21.2028C20.7712 33.5156 20.4167 33.375 20.1393 33.0938C19.8618 32.8125 19.7231 32.4531 19.7231 32.0156ZM14.5439 29.7656C15.3762 29.7969 16.0236 30.1719 16.4861 30.8906C16.856 31.6406 16.856 32.3906 16.4861 33.1406C16.0236 33.8594 15.3762 34.2344 14.5439 34.2656C13.7115 34.2344 13.0641 33.8594 12.6017 33.1406C12.2317 32.3906 12.2317 31.6406 12.6017 30.8906C13.0641 30.1719 13.7115 29.7969 14.5439 29.7656Z" fill="white"/>
</g>
</g>
<defs>
<clipPath id="clip0_711_83">
<rect width="24" height="24" fill="white" transform="translate(12 12)"/>
</clipPath>
</defs>
</svg>
