<svg width="48" height="48" viewBox="0 0 48 48" fill="none" xmlns="http://www.w3.org/2000/svg">
<circle cx="24" cy="24" r="24" fill="#18AE8E"/>
<g clip-path="url(#clip0_711_72)">
<mask id="mask0_711_72" style="mask-type:luminance" maskUnits="userSpaceOnUse" x="9" y="12" width="30" height="24">
<path d="M39 12H9V36H39V12Z" fill="white"/>
</mask>
<g mask="url(#mask0_711_72)">
<path d="M18.7832 29.0156C21.5161 28.9531 23.7987 28.1406 25.631 26.5781C27.4633 25.0469 28.4105 23.1094 28.4727 20.7656C28.4105 18.4219 27.4633 16.4844 25.631 14.9531C23.7987 13.3906 21.5161 12.5781 18.7832 12.5156C16.0503 12.5781 13.7677 13.3906 11.9354 14.9531C10.1031 16.4844 9.15586 18.4219 9.09375 20.7656C9.12481 22.6094 9.74592 24.2187 10.9571 25.5937C10.7708 26.0625 10.5378 26.4531 10.2583 26.7656C10.041 27.0469 9.83909 27.2656 9.65276 27.4219C9.55959 27.5156 9.49748 27.5781 9.46642 27.6094C9.43537 27.6406 9.41984 27.6562 9.41984 27.6562H9.37325C9.12481 27.875 9.04717 28.1563 9.14033 28.5C9.26456 28.8125 9.49748 28.9844 9.83909 29.0156C10.895 28.9844 11.8577 28.7969 12.7273 28.4531C13.1621 28.2656 13.5503 28.0781 13.8919 27.8906C15.3515 28.6094 16.982 28.9844 18.7832 29.0156ZM29.9633 20.7656C29.8701 23.4531 28.8764 25.6719 26.982 27.4219C25.0565 29.1719 22.6962 30.1875 19.9012 30.4687C20.4913 32.25 21.6248 33.6875 23.3018 34.7812C24.9788 35.9062 26.9509 36.4844 29.218 36.5156C31.0192 36.4844 32.6497 36.1094 34.1093 35.3906C34.4509 35.5781 34.8391 35.7656 35.2738 35.9531C36.1434 36.2969 37.1061 36.4844 38.1621 36.5156C38.5037 36.4844 38.7366 36.3125 38.8608 36C38.954 35.6562 38.8609 35.375 38.5814 35.1562V35.1094C38.5503 35.1094 38.5347 35.1094 38.5347 35.1094C38.5037 35.0781 38.4416 35.0156 38.3484 34.9219C38.1621 34.7656 37.9602 34.5469 37.7428 34.2656C37.4633 33.9219 37.2304 33.5312 37.0441 33.0938C38.2553 31.7187 38.8764 30.1094 38.9074 28.2656C38.8453 26.0469 37.9757 24.1719 36.2987 22.6406C34.6217 21.1094 32.4944 20.2344 29.9167 20.0156C29.9478 20.2656 29.9633 20.5156 29.9633 20.7656Z" fill="white"/>
</g>
</g>
<defs>
<clipPath id="clip0_711_72">
<rect width="30" height="24" fill="white" transform="translate(9 12)"/>
</clipPath>
</defs>
</svg>
