<svg width="48" height="48" viewBox="0 0 48 48" fill="none" xmlns="http://www.w3.org/2000/svg">
<circle cx="24" cy="24" r="24" fill="#18AE8E"/>
<g clip-path="url(#clip0_711_105)">
<mask id="mask0_711_105" style="mask-type:luminance" maskUnits="userSpaceOnUse" x="12" y="12" width="24" height="24">
<path d="M36 12H12V36H36V12Z" fill="white"/>
</mask>
<g mask="url(#mask0_711_105)">
<path d="M13.5 14.0156C13.0625 14.0156 12.7031 14.1563 12.4219 14.4375C12.1406 14.7188 12 15.0781 12 15.5156V26.7656V29.0156V32.7656C12.0312 33.3906 12.25 33.9219 12.6562 34.3594C13.0938 34.7656 13.625 34.9844 14.25 35.0156H33.75C34.375 34.9844 34.9062 34.7656 35.3438 34.3594C35.75 33.9219 35.9687 33.3906 36 32.7656V26.7656V19.6406C35.9687 19.2031 35.7812 18.8906 35.4375 18.7031C35.0938 18.4844 34.7344 18.4688 34.3594 18.6562L27 22.5937V19.6406C26.9687 19.2031 26.7812 18.8906 26.4375 18.7031C26.0938 18.4844 25.7344 18.4688 25.3594 18.6562L18 22.5937V15.5156C18 15.0781 17.8594 14.7188 17.5781 14.4375C17.2969 14.1563 16.9375 14.0156 16.5 14.0156H13.5Z" fill="white"/>
</g>
</g>
<defs>
<clipPath id="clip0_711_105">
<rect width="27" height="24" fill="white" transform="translate(12 12)"/>
</clipPath>
</defs>
</svg>
