<svg width="48" height="48" viewBox="0 0 48 48" fill="none" xmlns="http://www.w3.org/2000/svg">
<circle cx="24" cy="24" r="24" fill="#18AE8E"/>
<g clip-path="url(#clip0_711_94)">
<mask id="mask0_711_94" style="mask-type:luminance" maskUnits="userSpaceOnUse" x="9" y="12" width="30" height="24">
<path d="M39 12H9V36H39V12Z" fill="white"/>
</mask>
<g mask="url(#mask0_711_94)">
<path d="M12 17.0156C12.0312 16.1719 12.3281 15.4688 12.8906 14.9062C13.4531 14.3438 14.1562 14.0469 15 14.0156H33C33.8437 14.0469 34.5469 14.3438 35.1094 14.9062C35.6719 15.4688 35.9687 16.1719 36 17.0156V29.0156H33V17.0156H15V29.0156H12V17.0156ZM9 31.4062C9.0625 30.875 9.35938 30.5781 9.89062 30.5156H38.1094C38.6406 30.5781 38.9375 30.875 39 31.4062C38.9687 32.4375 38.625 33.2969 37.9688 33.9844C37.2812 34.6406 36.4219 34.9844 35.3906 35.0156H12.6094C11.5781 34.9844 10.7344 34.6406 10.0781 33.9844C9.39062 33.2969 9.03125 32.4375 9 31.4062ZM22.1719 22.3125L20.7188 23.7656L22.1719 25.2187C22.6094 25.75 22.6094 26.2813 22.1719 26.8125C21.6406 27.25 21.1094 27.25 20.5781 26.8125L18.3281 24.5625C17.8906 24.0313 17.8906 23.5 18.3281 22.9687L20.5781 20.7187C21.1094 20.2813 21.6406 20.2813 22.1719 20.7187C22.6094 21.25 22.6094 21.7813 22.1719 22.3125ZM27.4219 20.7187L29.6719 22.9687C30.1094 23.5 30.1094 24.0313 29.6719 24.5625L27.4219 26.8125C26.8906 27.25 26.3594 27.25 25.8281 26.8125C25.3906 26.2813 25.3906 25.75 25.8281 25.2187L27.2812 23.7656L25.8281 22.3125C25.3906 21.7813 25.3906 21.25 25.8281 20.7187C26.3594 20.2813 26.8906 20.2813 27.4219 20.7187Z" fill="white"/>
</g>
</g>
<defs>
<clipPath id="clip0_711_94">
<rect width="30" height="24" fill="white" transform="translate(9 12)"/>
</clipPath>
</defs>
</svg>
